<svg width="330" height="110" viewBox="0 0 330 110" fill="none" xmlns="http://www.w3.org/2000/svg">
<g clip-path="url(#clip0_5232_18192)">
<path d="M186.951 29.8105H185.432V82.9991H186.951V29.8105Z" fill="white"/>
<path d="M107.085 50.8368C107.139 52.9051 106.461 54.9259 105.17 56.5432C103.278 58.8227 100.277 60.0232 96.1509 60.0232C94.8413 59.9412 93.5484 59.6857 92.3061 59.2634C91.1517 58.8632 89.9521 58.608 88.7349 58.5035C88.6385 58.509 88.5448 58.5374 88.4615 58.5863C88.3783 58.6352 88.3079 58.7032 88.2562 58.7847C88.059 59.1613 87.945 59.5759 87.9218 60.0004H86.8809V49.4083H87.8762L88.7956 52.4476C89.3036 53.8483 90.1219 55.116 91.1891 56.1557C92.7848 57.807 94.4691 58.6327 96.2421 58.6327C98.6507 58.6327 100.345 57.9717 101.333 56.6343C101.921 55.828 102.228 54.851 102.207 53.8533C102.213 53.2179 102.072 52.5897 101.795 52.0177C101.518 51.4457 101.113 50.9453 100.611 50.5557C99.5473 49.659 97.24 48.38 93.689 46.7185C91.6512 45.8352 89.9104 44.3845 88.6741 42.5394C87.7789 41.1855 87.291 39.6032 87.2684 37.9803C87.2249 36.7424 87.4526 35.51 87.9356 34.3694C88.4187 33.2287 89.1453 32.2076 90.0646 31.3774C91.5708 29.9545 93.5622 29.1585 95.6342 29.151C97.3275 29.1352 99.0109 29.4102 100.611 29.9641C101.553 30.3637 102.541 30.6445 103.552 30.7999C103.848 30.7999 104.091 30.6099 104.312 30.2148C104.532 29.8197 104.699 29.455 104.874 29.1814H105.877V38.7326H104.995C103.514 35.4577 102.344 33.4137 101.462 32.5855C100.794 31.9348 100.003 31.4226 99.1358 31.0783C98.2687 30.7341 97.3421 30.5646 96.4092 30.5795C95.8369 30.5467 95.2637 30.627 94.7224 30.8159C94.1811 31.0047 93.6823 31.2985 93.2547 31.6803C92.827 32.0621 92.4788 32.5244 92.23 33.0409C91.9812 33.5574 91.8366 34.1179 91.8046 34.6903C91.8046 34.7434 91.8046 34.789 91.8046 34.8422C91.7766 35.941 92.1311 37.0153 92.8076 37.8816C94.085 39.2061 95.6889 40.1705 97.4578 40.6778C100.71 41.8074 103.149 43.2587 104.775 45.0316C106.243 46.5868 107.058 48.6453 107.055 50.7836" fill="white"/>
<path d="M132.722 59.2475H121.712V58.2293C122.22 58.236 122.719 58.0876 123.14 57.8038C123.32 57.7096 123.473 57.5719 123.586 57.4034C123.699 57.2348 123.768 57.0408 123.786 56.8388C123.776 56.6822 123.726 56.5307 123.642 56.3981L118.186 48.4654L117.077 49.5748V55.8282C117.033 56.1942 117.071 56.5652 117.188 56.9147C117.305 57.2642 117.498 57.5835 117.753 57.8494C118.165 58.1328 118.661 58.2668 119.159 58.2293V59.2475H108.468V58.2293C108.947 58.275 109.429 58.1601 109.836 57.9026C110.11 57.6377 110.319 57.3119 110.444 56.9515C110.569 56.5912 110.608 56.2064 110.557 55.8282V30.5104C110.608 30.1549 110.581 29.7926 110.477 29.4488C110.373 29.105 110.196 28.7879 109.957 28.5197C109.517 28.1998 108.981 28.0415 108.438 28.0714V27H117.077V47.2573L123.232 41.2925C123.453 41.1027 123.634 40.8704 123.765 40.6095C123.895 40.3485 123.972 40.064 123.991 39.7729C123.985 39.5218 123.911 39.2771 123.777 39.0645C123.644 38.8519 123.455 38.6793 123.232 38.5647C122.68 38.2382 122.049 38.0724 121.408 38.086V37.1134H131.362V38.1164C130.601 38.122 129.847 38.2636 129.135 38.5343C128.282 38.8845 127.507 39.4011 126.856 40.054L122.472 44.2407L130.655 55.9726C130.944 56.4589 131.263 56.9528 131.62 57.4923C131.727 57.7001 131.883 57.8783 132.075 58.0109C132.268 58.1435 132.49 58.2264 132.722 58.2521V59.2703" fill="white"/>
<path d="M150.996 38.8764C150.65 38.8596 150.304 38.9219 149.986 39.0588C149.447 39.3793 149.055 39.8972 148.892 40.5025L140.944 62.135C140.43 63.7558 139.456 65.192 138.14 66.2686C137.166 67.0364 135.961 67.4539 134.721 67.4539C133.834 67.4634 132.966 67.1979 132.236 66.6941C131.961 66.5429 131.719 66.3388 131.524 66.0937C131.328 65.8485 131.183 65.5671 131.096 65.2656C131.026 64.859 130.991 64.4472 130.99 64.0346C130.965 63.6365 131.026 63.2377 131.169 62.8653C131.311 62.4929 131.533 62.1557 131.818 61.8767C132.355 61.3798 133.062 61.1079 133.794 61.1169C134.38 61.0965 134.956 61.282 135.42 61.6412C135.713 61.843 135.93 62.1373 136.035 62.477C136.151 62.8459 136.21 63.2302 136.21 63.6167C136.233 63.98 136.173 64.3436 136.035 64.6805C136.343 64.8465 136.689 64.9254 137.038 64.9085C137.362 64.918 137.683 64.8392 137.965 64.6805C138.726 64.0599 139.301 63.2425 139.629 62.3174C140.108 61.3703 140.392 60.3369 140.465 59.2781C140.481 59.0687 140.45 58.8584 140.374 58.6626L133.619 40.5025C133.477 40.0331 133.215 39.6088 132.859 39.2715C132.475 38.9848 132 38.8447 131.522 38.8764V37.957H142.274V38.8764C141.656 38.8547 141.04 38.9369 140.45 39.1196C140.032 39.2791 139.812 39.7047 139.812 40.3733C139.85 40.9127 139.97 41.4431 140.169 41.9462L143.413 51.0642L146.658 41.9462C146.856 41.4273 146.977 40.8819 147.015 40.3277C147.015 39.6895 146.802 39.2791 146.399 39.1196C145.805 38.9331 145.183 38.8509 144.561 38.8764V37.957H151.004V38.8764" fill="white"/>
<path d="M163.192 29.2793C162.108 29.2776 161.031 29.4469 160 29.7808C158.966 30.1205 157.997 30.6345 157.136 31.3005C156.246 31.9795 155.489 32.8166 154.902 33.7699C154.204 34.9077 153.732 36.1692 153.511 37.4856C153.319 38.647 153.407 39.8378 153.77 40.958C154.142 42.0784 154.787 43.0888 155.647 43.8986C156.453 44.6711 157.393 45.2914 158.42 45.7298C159.388 46.1226 160.416 46.3462 161.459 46.3908C162.442 46.4121 163.42 46.2551 164.347 45.9273C165.388 45.5629 166.359 45.0232 167.219 44.3317C167.219 44.6812 167.219 45.1523 167.265 45.7374V47.7054C167.265 48.4272 167.211 49.187 167.135 49.9849C167.061 50.753 166.931 51.5147 166.748 52.2644C166.583 52.956 166.328 53.6229 165.988 54.2476C165.706 54.8088 165.337 55.3217 164.894 55.7672C164.461 56.2089 163.944 56.5601 163.374 56.8006C162.742 57.0579 162.066 57.1896 161.383 57.1881H160.73C160.474 57.1602 160.221 57.1171 159.97 57.059C159.754 57.0212 159.546 56.9467 159.355 56.8386C159.287 56.8085 159.231 56.7577 159.194 56.6935C159.157 56.6293 159.141 56.5551 159.149 56.4815C159.272 56.3064 159.448 56.1758 159.651 56.1092C159.969 55.9782 160.278 55.8285 160.578 55.6609C160.891 55.4749 161.152 55.2137 161.338 54.901C161.574 54.4768 161.687 53.9954 161.665 53.5105C161.686 53.1653 161.629 52.8196 161.498 52.4997C161.366 52.1798 161.163 51.8941 160.905 51.6641C160.32 51.1852 159.578 50.9414 158.823 50.9803C158.193 50.9707 157.57 51.1032 156.999 51.3678C156.472 51.5963 156.023 51.974 155.707 52.4543C155.408 52.9051 155.247 53.4332 155.244 53.974C155.269 54.5193 155.448 55.0463 155.761 55.4937C156.149 56.0686 156.645 56.5638 157.219 56.9526C157.919 57.4264 158.688 57.7879 159.499 58.024C160.454 58.3055 161.444 58.4487 162.44 58.4495C163.558 58.4489 164.665 58.2295 165.699 57.8036C166.723 57.3605 167.678 56.7719 168.533 56.056C170.37 54.5049 171.811 52.5383 172.735 50.3192C173.208 49.1635 173.547 47.9577 173.746 46.7252C173.955 45.4545 174.054 44.1681 174.042 42.8804C174.056 41.0085 173.761 39.1472 173.168 37.3716C172.581 35.7166 171.689 34.1859 170.539 32.8581C169.906 32.1189 169.162 31.4809 168.336 30.9661C167.543 30.434 166.685 30.005 165.783 29.6896C164.945 29.4223 164.071 29.284 163.192 29.2793ZM163.131 30.4799C163.668 30.4923 164.193 30.647 164.651 30.9282C165.189 31.2791 165.648 31.74 165.996 32.2807C166.447 32.9795 166.776 33.7504 166.968 34.5602C167.22 35.6101 167.34 36.6872 167.325 37.7667C167.339 38.4665 167.317 39.1665 167.257 39.8638C167.213 40.425 167.111 40.9801 166.953 41.5203C166.793 42.0524 166.569 42.5628 166.284 43.04C166.092 43.3278 165.856 43.5842 165.585 43.7998C165.276 44.0584 164.93 44.2708 164.559 44.4305C164.178 44.5867 163.771 44.6692 163.359 44.6736C162.749 44.6797 162.153 44.4848 161.665 44.1189C161.153 43.7098 160.74 43.1903 160.456 42.5993C160.103 41.8767 159.847 41.1101 159.697 40.3197C159.529 39.3743 159.447 38.4154 159.453 37.4552C159.447 36.6194 159.498 35.7841 159.605 34.9553C159.69 34.1753 159.874 33.4093 160.152 32.6758C160.386 32.0488 160.779 31.4936 161.292 31.0649C161.81 30.644 162.464 30.4253 163.131 30.4495V30.4799Z" fill="white"/>
<path d="M168.488 82.8258V72.9479H169.81V81.7089H174.673V82.8638H168.526L168.488 82.8258ZM155.548 78.7759H158.891L157.858 76.0405C157.554 75.2123 157.31 74.5208 157.158 73.9889C157.034 74.6332 156.856 75.266 156.627 75.8809L155.548 78.7759ZM152.691 82.8258L156.49 72.9479H157.896L161.945 82.8258H160.464L159.316 79.8397H155.213L154.142 82.8258H152.691ZM143.329 82.8258V74.1105H140.077V72.9479H147.904V74.1105H144.636V82.8258H143.329ZM131.651 82.8258V72.9479H132.958V82.8258H131.651ZM117.974 77.6437H120.527C121.164 77.6976 121.8 77.5225 122.32 77.1498C122.503 76.9825 122.647 76.7762 122.74 76.5461C122.834 76.316 122.874 76.068 122.859 75.8201C122.873 75.4413 122.763 75.0682 122.548 74.7564C122.345 74.4708 122.05 74.2642 121.712 74.1713C121.313 74.1093 120.908 74.0889 120.504 74.1105H117.974V77.6437ZM116.667 82.8258V72.9479H120.39C120.898 72.9328 121.407 72.9659 121.91 73.0467C122.346 73.1106 122.764 73.2688 123.133 73.5102C123.466 73.7543 123.728 74.082 123.893 74.46C124.096 74.8789 124.197 75.3396 124.189 75.8049C124.223 76.5906 123.95 77.3586 123.429 77.9477C122.89 78.5252 121.91 78.8139 120.534 78.8139H118.019V82.8258H116.667ZM103.689 78.7759H107.032L105.991 76.0405C105.679 75.2123 105.444 74.5208 105.292 73.9889C105.167 74.6332 104.989 75.266 104.76 75.8809L103.689 78.7759ZM100.832 82.8258L104.631 72.9479H106.014L110.087 82.8258H108.567L107.412 79.8397H103.286L102.199 82.8258H100.832ZM93.4461 79.3686L94.753 79.6953C94.5475 80.6582 94.026 81.5247 93.2713 82.1572C92.5109 82.7409 91.5698 83.0394 90.6119 83.0006C89.7132 83.0305 88.8238 82.8095 88.0437 82.3623C87.3591 81.9013 86.8295 81.2446 86.524 80.4779C86.1723 79.6357 85.994 78.7312 85.9997 77.8185C85.9774 76.8848 86.1807 75.9595 86.5924 75.1211C86.9559 74.3692 87.5458 73.7501 88.2792 73.3507C89.0123 72.9484 89.8366 72.7417 90.6727 72.7504C91.5648 72.7199 92.4416 72.9873 93.165 73.5102C93.862 74.037 94.3601 74.7842 94.5783 75.6302L93.2941 75.9341C93.1169 75.3398 92.768 74.811 92.2912 74.4144C91.7987 74.0471 91.1954 73.8594 90.5815 73.8825C89.905 73.8668 89.2397 74.0576 88.6743 74.4296C88.1699 74.7933 87.7967 75.3104 87.6106 75.9037C87.3984 76.5119 87.2905 77.1516 87.2914 77.7957C87.2817 78.561 87.4158 79.3214 87.6865 80.0372C87.899 80.6221 88.3035 81.1176 88.8339 81.4429C89.3387 81.7463 89.9166 81.9065 90.5055 81.9064C91.1812 81.9237 91.841 81.7001 92.3671 81.2758C92.9213 80.772 93.286 80.0935 93.4005 79.3534L93.4461 79.3686Z" fill="white"/>
<path d="M207.324 39.5906C205.771 42.5486 203.934 45.348 201.837 47.9488L214.109 46.9838C213.121 45.4641 212.012 43.8457 211.001 42.5084L212.414 41.7485C214.451 44.3749 216.295 47.1454 217.931 50.0383L216.487 50.9122C216.115 50.2055 215.621 49.3317 215.028 48.3667C201.906 49.5444 200.591 49.6128 199.74 49.9928C199.579 49.3958 199.373 48.8117 199.125 48.2451C199.642 48.1311 200.189 47.4853 200.918 46.5051C202.549 44.3152 203.976 41.9803 205.181 39.5298H197.734V37.9873H218.493V39.5906H207.324ZM216.069 32.9496H200.28V31.3691H216.069V32.9496Z" fill="white"/>
<path d="M242.162 49.0347C242.869 49.0347 242.99 48.4496 243.059 45.6686C243.501 45.9814 243.995 46.2129 244.518 46.3525C244.381 49.559 243.955 50.5468 242.284 50.5468H239.434C237.687 50.5468 237.155 50.0529 237.155 48.0697V37.0217H231.547C231.053 42.9332 229.427 48.0013 223.706 50.8735C223.389 50.3994 223 49.9788 222.551 49.6274C227.968 47.0819 229.496 42.4621 229.944 37.0217H223.607V35.502H230.043C230.134 33.6176 230.134 31.6572 230.134 29.6816H231.76C231.76 31.6572 231.76 33.6176 231.646 35.502H238.728V48.0469C238.728 48.8523 238.842 49.0119 239.602 49.0119L242.162 49.0347Z" fill="white"/>
<path d="M204.595 65.707L198.023 67.8801L197.574 66.4212C199.269 65.9426 201.814 65.1447 204.36 64.3469L204.595 65.707ZM209.154 71.4134C208.356 76.17 206.183 78.7154 198.319 79.8248C198.164 79.3568 197.933 78.9177 197.635 78.5255C205.104 77.606 206.913 75.4861 207.619 71.4134H209.154ZM203.379 62.8348C201.853 61.7804 200.198 60.925 198.456 60.2894L199.215 59.2104C200.967 59.7866 202.637 60.5859 204.185 61.5887L203.379 62.8348ZM214.131 75.6305V70.7067H202.255V75.79H200.735V69.2478H215.719V75.6305H214.131ZM212.133 61.7558C212.018 62.205 211.868 62.6445 211.684 63.0704C213.029 65.1219 215.643 66.7252 218.561 67.3634C218.183 67.7267 217.865 68.1473 217.619 68.6096C215.04 67.9193 212.758 66.4034 211.122 64.2937C209.967 66.2085 208.083 67.7814 204.831 68.7236C204.599 68.3096 204.313 67.9287 203.98 67.5914C208.22 66.5124 209.853 64.2709 210.613 61.7558H207.574C206.889 62.7542 206.065 63.6498 205.127 64.4153C204.832 64.0343 204.465 63.7143 204.048 63.4731C205.767 62.1569 207.083 60.3854 207.847 58.3594L209.367 58.5949C209.106 59.2515 208.798 59.8888 208.447 60.5021H216.669L216.95 60.4337L218.059 60.7605C217.48 61.9818 216.836 63.1713 216.129 64.3241L214.785 63.8986C215.111 63.3515 215.544 62.5537 215.962 61.7558H212.133ZM209.352 74.9238C212.386 75.8675 215.354 77.0149 218.234 78.3583L217.338 79.6804C214.473 78.2716 211.513 77.0681 208.478 76.0788L209.352 74.9238Z" fill="white"/>
<path d="M236.137 64.9085C237.877 68.9585 240.939 72.7804 244.282 74.6192C243.839 75.0164 243.437 75.4567 243.082 75.9338C239.548 73.7454 236.448 69.5511 234.602 64.9085H234.229V73.7226H239.829V75.2955H234.229V79.7785H232.603V75.2955H227.019V73.7226H232.603V64.9085H232.178C230.316 69.5283 227.209 73.7226 223.82 76.0021C223.481 75.5533 223.102 75.1362 222.688 74.756C225.848 72.826 228.835 68.9585 230.605 64.8781H223.28V63.3281H232.611V58.3359H234.237V63.3281H243.659V64.9085H236.137Z" fill="white"/>
</g>
<defs>
<clipPath id="clip0_5232_18192">
<rect width="158.517" height="56" fill="white" transform="translate(86 27)"/>
</clipPath>
</defs>
</svg>
