<svg width="330" height="110" viewBox="0 0 330 110" fill="none" xmlns="http://www.w3.org/2000/svg">
<path d="M100.227 47.5358V53.7273H108.685V57.3813H100.227V63.8096H109.7V67.6328H95.4563V43.7465H109.7V47.5358H100.227ZM123.585 63.539V67.6328H121.081C118.984 67.6328 117.371 67.1253 116.243 66.1103C115.138 65.0953 114.585 63.4036 114.585 61.0353V52.9153H111.98V48.8891H114.585V44.254H119.356V48.8891H123.551V52.9153H119.356V61.103C119.356 62.0052 119.536 62.6368 119.897 62.9976C120.258 63.3585 120.867 63.539 121.724 63.539H123.585ZM138.521 48.6185C140.686 48.6185 142.412 49.329 143.698 50.75C144.983 52.171 145.626 54.1671 145.626 56.7385V67.6328H140.889V57.2798C140.889 55.7911 140.506 54.6408 139.739 53.8288C138.972 52.9943 137.923 52.577 136.593 52.577C135.239 52.577 134.157 53.0168 133.345 53.8965C132.533 54.7761 132.127 56.0393 132.127 57.6858V67.6328H127.356V42.5961H132.127V52.6446C132.623 51.3815 133.435 50.4004 134.563 49.7011C135.713 48.9794 137.032 48.6185 138.521 48.6185ZM167.789 57.5505C167.789 58.0241 167.733 58.5655 167.62 59.1745H153.884C153.951 60.8436 154.402 62.0729 155.237 62.8623C156.071 63.6518 157.109 64.0465 158.35 64.0465C159.455 64.0465 160.368 63.7758 161.09 63.2345C161.834 62.6931 162.308 61.9601 162.511 61.0353H167.552C167.304 62.3435 166.774 63.5164 165.962 64.554C165.15 65.5915 164.101 66.4035 162.816 66.99C161.552 67.5764 160.143 67.8696 158.586 67.8696C156.759 67.8696 155.135 67.4862 153.714 66.7193C152.293 65.9299 151.188 64.8134 150.399 63.3698C149.609 61.9263 149.215 60.2233 149.215 58.261C149.215 56.2986 149.609 54.5957 150.399 53.1521C151.188 51.686 152.293 50.5695 153.714 49.8026C155.135 49.0358 156.759 48.6523 158.586 48.6523C160.436 48.6523 162.049 49.0358 163.425 49.8026C164.823 50.5695 165.894 51.6296 166.639 52.983C167.406 54.3138 167.789 55.8363 167.789 57.5505ZM162.985 57.0768C163.052 55.543 162.646 54.3814 161.767 53.592C160.91 52.8025 159.85 52.4078 158.586 52.4078C157.301 52.4078 156.218 52.8025 155.338 53.592C154.459 54.3814 153.974 55.543 153.884 57.0768H162.985ZM176.284 52.4755C176.984 51.28 177.908 50.344 179.059 49.6673C180.209 48.9681 181.495 48.6185 182.916 48.6185V53.7273H181.529C178.032 53.7273 176.284 55.3513 176.284 58.5993V67.6328H171.514V48.8891H176.284V52.4755ZM203.522 57.5505C203.522 58.0241 203.465 58.5655 203.352 59.1745H189.616C189.684 60.8436 190.135 62.0729 190.969 62.8623C191.804 63.6518 192.842 64.0465 194.082 64.0465C195.187 64.0465 196.101 63.7758 196.823 63.2345C197.567 62.6931 198.041 61.9601 198.244 61.0353H203.285C203.037 62.3435 202.507 63.5164 201.695 64.554C200.883 65.5915 199.834 66.4035 198.548 66.99C197.285 67.5764 195.875 67.8696 194.319 67.8696C192.492 67.8696 190.868 67.4862 189.447 66.7193C188.026 65.9299 186.921 64.8134 186.131 63.3698C185.342 61.9263 184.947 60.2233 184.947 58.261C184.947 56.2986 185.342 54.5957 186.131 53.1521C186.921 51.686 188.026 50.5695 189.447 49.8026C190.868 49.0358 192.492 48.6523 194.319 48.6523C196.168 48.6523 197.781 49.0358 199.157 49.8026C200.556 50.5695 201.627 51.6296 202.371 52.983C203.138 54.3138 203.522 55.8363 203.522 57.5505ZM198.717 57.0768C198.785 55.543 198.379 54.3814 197.499 53.592C196.642 52.8025 195.582 52.4078 194.319 52.4078C193.033 52.4078 191.951 52.8025 191.071 53.592C190.191 54.3814 189.706 55.543 189.616 57.0768H198.717ZM214.588 48.6523C216.167 48.6523 217.52 49.0245 218.648 49.7688C219.776 50.5131 220.577 51.5169 221.05 52.78V48.8891H225.787V67.6328H221.05V63.7081C220.577 64.9713 219.776 65.9863 218.648 66.7531C217.52 67.4975 216.167 67.8696 214.588 67.8696C213.009 67.8696 211.588 67.4862 210.325 66.7193C209.062 65.9524 208.07 64.8472 207.348 63.4036C206.649 61.9375 206.299 60.2233 206.299 58.261C206.299 56.2986 206.649 54.5957 207.348 53.1521C208.07 51.686 209.062 50.5695 210.325 49.8026C211.588 49.0358 213.009 48.6523 214.588 48.6523ZM216.077 52.8138C214.588 52.8138 213.393 53.2988 212.491 54.2686C211.588 55.2385 211.137 56.5693 211.137 58.261C211.137 59.9526 211.588 61.2834 212.491 62.2533C213.393 63.2006 214.588 63.6743 216.077 63.6743C217.52 63.6743 218.705 63.1894 219.629 62.2195C220.577 61.227 221.05 59.9075 221.05 58.261C221.05 56.5919 220.577 55.2724 219.629 54.3025C218.705 53.31 217.52 52.8138 216.077 52.8138ZM235.219 42.5961V67.6328H230.449V42.5961H235.219Z" fill="white"/>
</svg>
