<svg width="330" height="110" viewBox="0 0 330 110" fill="none" xmlns="http://www.w3.org/2000/svg">
<path d="M111.866 61.103C111.866 62.321 111.561 63.4488 110.952 64.4863C110.343 65.5013 109.441 66.3246 108.245 66.9561C107.05 67.5651 105.595 67.8696 103.881 67.8696C102.189 67.8696 100.678 67.5877 99.3472 67.0238C98.0164 66.4374 96.945 65.6028 96.133 64.5201C95.3436 63.4375 94.8925 62.1744 94.7797 60.7308H99.8547C99.9675 61.7007 100.351 62.5127 101.005 63.1668C101.682 63.7984 102.573 64.1141 103.678 64.1141C104.67 64.1141 105.426 63.8548 105.945 63.336C106.486 62.7946 106.757 62.1067 106.757 61.2721C106.757 60.5278 106.542 59.9188 106.114 59.4451C105.685 58.9489 105.144 58.5542 104.49 58.261C103.836 57.9678 102.934 57.6294 101.783 57.246C100.295 56.7498 99.0765 56.2648 98.1292 55.7911C97.1818 55.2949 96.3698 54.5844 95.6932 53.6596C95.0391 52.7349 94.712 51.5281 94.712 50.0395C94.712 47.9869 95.4451 46.3742 96.9112 45.2013C98.3998 44.0059 100.362 43.4081 102.798 43.4081C105.324 43.4081 107.332 44.0171 108.821 45.2351C110.332 46.4531 111.189 48.0771 111.392 50.1071H106.249C106.114 49.25 105.753 48.5508 105.167 48.0095C104.58 47.4456 103.779 47.1636 102.764 47.1636C101.885 47.1636 101.174 47.4005 100.633 47.8741C100.092 48.3253 99.8208 48.9906 99.8208 49.8703C99.8208 50.5695 100.024 51.156 100.43 51.6296C100.858 52.0808 101.388 52.4529 102.02 52.7461C102.674 53.0394 103.554 53.3664 104.659 53.7273C106.193 54.2686 107.433 54.7761 108.381 55.2498C109.351 55.7235 110.174 56.434 110.851 57.3813C111.527 58.3286 111.866 59.5692 111.866 61.103ZM123.06 48.6523C124.639 48.6523 125.992 49.0245 127.12 49.7688C128.248 50.5131 129.048 51.5169 129.522 52.78V48.8891H134.259V67.6328H129.522V63.7081C129.048 64.9713 128.248 65.9863 127.12 66.7531C125.992 67.4975 124.639 67.8696 123.06 67.8696C121.481 67.8696 120.06 67.4862 118.797 66.7193C117.534 65.9524 116.541 64.8472 115.82 63.4036C115.12 61.9375 114.771 60.2233 114.771 58.261C114.771 56.2986 115.12 54.5957 115.82 53.1521C116.541 51.686 117.534 50.5695 118.797 49.8026C120.06 49.0358 121.481 48.6523 123.06 48.6523ZM124.549 52.8138C123.06 52.8138 121.864 53.2988 120.962 54.2686C120.06 55.2385 119.609 56.5693 119.609 58.261C119.609 59.9526 120.06 61.2834 120.962 62.2533C121.864 63.2006 123.06 63.6743 124.549 63.6743C125.992 63.6743 127.176 63.1894 128.101 62.2195C129.048 61.227 129.522 59.9075 129.522 58.261C129.522 56.5919 129.048 55.2724 128.101 54.3025C127.176 53.31 125.992 52.8138 124.549 52.8138ZM150.085 48.6185C152.251 48.6185 153.976 49.329 155.262 50.75C156.547 52.171 157.19 54.1671 157.19 56.7385V67.6328H152.454V57.2798C152.454 55.7911 152.07 54.6408 151.303 53.8288C150.536 52.9943 149.488 52.577 148.157 52.577C146.803 52.577 145.721 53.0168 144.909 53.8965C144.097 54.7761 143.691 56.0393 143.691 57.6858V67.6328H138.92V48.8891H143.691V52.6446C144.187 51.3815 144.999 50.4004 146.127 49.7011C147.277 48.9794 148.597 48.6185 150.085 48.6185ZM171.741 63.539V67.6328H169.237C167.139 67.6328 165.527 67.1253 164.399 66.1103C163.294 65.0953 162.741 63.4036 162.741 61.0353V52.9153H160.136V48.8891H162.741V44.254H167.512V48.8891H171.707V52.9153H167.512V61.103C167.512 62.0052 167.692 62.6368 168.053 62.9976C168.414 63.3585 169.023 63.539 169.88 63.539H171.741ZM174.97 43.5096C174.97 42.7428 175.241 42.1225 175.782 41.6488C176.324 41.1526 177.034 40.9045 177.914 40.9045C178.794 40.9045 179.504 41.1526 180.045 41.6488C180.587 42.1225 180.857 42.7428 180.857 43.5096C180.857 44.254 180.587 44.8743 180.045 45.3705C179.504 45.8441 178.794 46.081 177.914 46.081C177.034 46.081 176.324 45.8441 175.782 45.3705C175.241 44.8743 174.97 44.254 174.97 43.5096ZM180.282 48.8891V67.6328H175.512V48.8891H180.282ZM192.278 48.6523C193.857 48.6523 195.21 49.0245 196.338 49.7688C197.466 50.5131 198.267 51.5169 198.74 52.78V48.8891H203.477V67.6328H198.74V63.7081C198.267 64.9713 197.466 65.9863 196.338 66.7531C195.21 67.4975 193.857 67.8696 192.278 67.8696C190.699 67.8696 189.278 67.4862 188.015 66.7193C186.752 65.9524 185.76 64.8472 185.038 63.4036C184.339 61.9375 183.989 60.2233 183.989 58.261C183.989 56.2986 184.339 54.5957 185.038 53.1521C185.76 51.686 186.752 50.5695 188.015 49.8026C189.278 49.0358 190.699 48.6523 192.278 48.6523ZM193.767 52.8138C192.278 52.8138 191.083 53.2988 190.18 54.2686C189.278 55.2385 188.827 56.5693 188.827 58.261C188.827 59.9526 189.278 61.2834 190.18 62.2533C191.083 63.2006 192.278 63.6743 193.767 63.6743C195.21 63.6743 196.394 63.1894 197.319 62.2195C198.267 61.227 198.74 59.9075 198.74 58.261C198.74 56.5919 198.267 55.2724 197.319 54.3025C196.394 53.31 195.21 52.8138 193.767 52.8138ZM215.48 48.6523C217.059 48.6523 218.413 49.0245 219.54 49.7688C220.668 50.5131 221.469 51.5169 221.943 52.78V48.8891H226.679V67.7005C226.679 69.4373 226.33 70.9936 225.63 72.3695C224.954 73.7679 223.927 74.8619 222.552 75.6513C221.198 76.4408 219.552 76.8355 217.612 76.8355C214.905 76.8355 212.717 76.1926 211.048 74.907C209.379 73.6213 208.364 71.8733 208.003 69.6628H212.706C212.977 70.6101 213.495 71.3432 214.262 71.862C215.052 72.4033 216.056 72.674 217.274 72.674C218.672 72.674 219.8 72.2567 220.657 71.4221C221.514 70.6101 221.943 69.3696 221.943 67.7005V63.7081C221.469 64.9713 220.668 65.9863 219.54 66.7531C218.413 67.4975 217.059 67.8696 215.48 67.8696C213.901 67.8696 212.48 67.4862 211.217 66.7193C209.954 65.9524 208.962 64.8472 208.24 63.4036C207.541 61.9375 207.191 60.2233 207.191 58.261C207.191 56.2986 207.541 54.5957 208.24 53.1521C208.962 51.686 209.954 50.5695 211.217 49.8026C212.48 49.0358 213.901 48.6523 215.48 48.6523ZM216.969 52.8138C215.48 52.8138 214.285 53.2988 213.383 54.2686C212.48 55.2385 212.029 56.5693 212.029 58.261C212.029 59.9526 212.48 61.2834 213.383 62.2533C214.285 63.2006 215.48 63.6743 216.969 63.6743C218.413 63.6743 219.597 63.1894 220.522 62.2195C221.469 61.227 221.943 59.9075 221.943 58.261C221.943 56.5919 221.469 55.2724 220.522 54.3025C219.597 53.31 218.413 52.8138 216.969 52.8138ZM240.002 48.6523C241.829 48.6523 243.464 49.0358 244.908 49.8026C246.374 50.5695 247.524 51.686 248.359 53.1521C249.193 54.5957 249.611 56.2986 249.611 58.261C249.611 60.2233 249.193 61.9263 248.359 63.3698C247.524 64.8134 246.374 65.9299 244.908 66.7193C243.464 67.4862 241.829 67.8696 240.002 67.8696C238.175 67.8696 236.529 67.4862 235.062 66.7193C233.619 65.9299 232.48 64.8134 231.645 63.3698C230.811 61.9263 230.393 60.2233 230.393 58.261C230.393 56.2986 230.811 54.5957 231.645 53.1521C232.48 51.686 233.619 50.5695 235.062 49.8026C236.529 49.0358 238.175 48.6523 240.002 48.6523ZM240.002 52.78C238.671 52.78 237.544 53.2536 236.619 54.201C235.694 55.1258 235.232 56.4791 235.232 58.261C235.232 60.0429 235.694 61.4075 236.619 62.3548C237.544 63.2796 238.671 63.742 240.002 63.742C241.333 63.742 242.461 63.2796 243.385 62.3548C244.31 61.4075 244.773 60.0429 244.773 58.261C244.773 56.4791 244.31 55.1258 243.385 54.201C242.461 53.2536 241.333 52.78 240.002 52.78Z" fill="white"/>
</svg>
