<svg width="330" height="110" viewBox="0 0 330 110" fill="none" xmlns="http://www.w3.org/2000/svg">
<path d="M58.1465 67.75C57.9209 67.75 57.7179 67.6711 57.5375 67.5132C57.3796 67.3327 57.3007 67.1297 57.3007 66.9042V44.9463C57.3007 44.6982 57.3796 44.4952 57.5375 44.3373C57.6954 44.1569 57.8984 44.0667 58.1465 44.0667H67.4507C70.428 44.0667 72.7512 44.7433 74.4203 46.0967C76.112 47.45 76.9578 49.3559 76.9578 51.8145C76.9578 53.3934 76.5857 54.7354 75.8413 55.8407C75.1196 56.9459 74.1158 57.803 72.8302 58.412L77.3977 66.6673C77.4653 66.8027 77.4992 66.9267 77.4992 67.0395C77.4992 67.2199 77.4315 67.3891 77.2962 67.547C77.1608 67.6823 76.9917 67.75 76.7887 67.75H72.0182C71.3641 67.75 70.9017 67.4455 70.631 66.8365L66.9093 59.4947H63.6613V66.9042C63.6613 67.1523 63.5711 67.3553 63.3907 67.5132C63.2328 67.6711 63.0298 67.75 62.7817 67.75H58.1465ZM67.4168 54.5212C68.3867 54.5212 69.1198 54.2843 69.616 53.8107C70.1348 53.3144 70.3942 52.6378 70.3942 51.7807C70.3942 50.9236 70.1348 50.2356 69.616 49.7168C69.1198 49.1981 68.3867 48.9387 67.4168 48.9387H63.6613V54.5212H67.4168ZM81.6374 47.7207C81.3893 47.7207 81.1863 47.6417 81.0284 47.4838C80.8705 47.3034 80.7916 47.0891 80.7916 46.841V43.6945C80.7916 43.4464 80.8705 43.2434 81.0284 43.0855C81.2088 42.9051 81.4118 42.8148 81.6374 42.8148H85.8666C86.1147 42.8148 86.3177 42.9051 86.4756 43.0855C86.656 43.2434 86.7462 43.4464 86.7462 43.6945V46.841C86.7462 47.0891 86.656 47.3034 86.4756 47.4838C86.3177 47.6417 86.1147 47.7207 85.8666 47.7207H81.6374ZM81.6374 67.75C81.4118 67.75 81.2088 67.6711 81.0284 67.5132C80.8705 67.3327 80.7916 67.1297 80.7916 66.9042V51.0025C80.7916 50.7544 80.8705 50.5514 81.0284 50.3935C81.2088 50.2356 81.4118 50.1567 81.6374 50.1567H85.8666C86.1147 50.1567 86.3177 50.2356 86.4756 50.3935C86.656 50.5514 86.7462 50.7544 86.7462 51.0025V66.9042C86.7462 67.1523 86.656 67.3553 86.4756 67.5132C86.3177 67.6711 86.1147 67.75 85.8666 67.75H81.6374ZM101.939 68.0883C99.6606 68.0883 97.9126 67.344 96.6946 65.8553V66.9042C96.6946 67.1297 96.6156 67.3327 96.4577 67.5132C96.2998 67.6711 96.0968 67.75 95.8487 67.75H91.8226C91.5744 67.75 91.3602 67.6711 91.1797 67.5132C91.0218 67.3553 90.9429 67.1523 90.9429 66.9042V44.5742C90.9429 44.3261 91.0218 44.1231 91.1797 43.9652C91.3602 43.8073 91.5744 43.7283 91.8226 43.7283H96.1871C96.4352 43.7283 96.6382 43.8073 96.7961 43.9652C96.9539 44.1231 97.0329 44.3261 97.0329 44.5742V51.7807C98.2734 50.4724 99.9087 49.8183 101.939 49.8183C104.104 49.8183 105.818 50.5288 107.081 51.9498C108.344 53.3483 109.021 55.2768 109.111 57.7353C109.134 58.0286 109.145 58.4346 109.145 58.9533C109.145 59.4496 109.134 59.8443 109.111 60.1375C109.021 62.6863 108.344 64.6486 107.081 66.0245C105.841 67.4004 104.127 68.0883 101.939 68.0883ZM99.9764 63.3855C100.991 63.3855 101.713 63.0923 102.142 62.5058C102.593 61.8968 102.852 61.0623 102.92 60.0022C102.942 59.7766 102.954 59.427 102.954 58.9533C102.954 58.4797 102.942 58.1301 102.92 57.9045C102.852 56.8444 102.593 56.0211 102.142 55.4347C101.713 54.8257 100.991 54.5212 99.9764 54.5212C99.0291 54.5212 98.3073 54.8144 97.8111 55.4008C97.3374 55.9647 97.078 56.6865 97.0329 57.5662C97.0103 57.8594 96.9991 58.2767 96.9991 58.818C96.9991 59.3593 97.0103 59.7879 97.0329 60.1037C97.078 61.051 97.3374 61.8404 97.8111 62.472C98.2847 63.081 99.0065 63.3855 99.9764 63.3855ZM123.72 68.0883C121.442 68.0883 119.694 67.344 118.476 65.8553V66.9042C118.476 67.1297 118.397 67.3327 118.239 67.5132C118.081 67.6711 117.878 67.75 117.63 67.75H113.604C113.356 67.75 113.142 67.6711 112.961 67.5132C112.803 67.3553 112.724 67.1523 112.724 66.9042V44.5742C112.724 44.3261 112.803 44.1231 112.961 43.9652C113.142 43.8073 113.356 43.7283 113.604 43.7283H117.969C118.217 43.7283 118.42 43.8073 118.578 43.9652C118.735 44.1231 118.814 44.3261 118.814 44.5742V51.7807C120.055 50.4724 121.69 49.8183 123.72 49.8183C125.886 49.8183 127.6 50.5288 128.863 51.9498C130.126 53.3483 130.803 55.2768 130.893 57.7353C130.915 58.0286 130.927 58.4346 130.927 58.9533C130.927 59.4496 130.915 59.8443 130.893 60.1375C130.803 62.6863 130.126 64.6486 128.863 66.0245C127.622 67.4004 125.908 68.0883 123.72 68.0883ZM121.758 63.3855C122.773 63.3855 123.495 63.0923 123.923 62.5058C124.374 61.8968 124.634 61.0623 124.701 60.0022C124.724 59.7766 124.735 59.427 124.735 58.9533C124.735 58.4797 124.724 58.1301 124.701 57.9045C124.634 56.8444 124.374 56.0211 123.923 55.4347C123.495 54.8257 122.773 54.5212 121.758 54.5212C120.811 54.5212 120.089 54.8144 119.593 55.4008C119.119 55.9647 118.86 56.6865 118.814 57.5662C118.792 57.8594 118.781 58.2767 118.781 58.818C118.781 59.3593 118.792 59.7879 118.814 60.1037C118.86 61.051 119.119 61.8404 119.593 62.472C120.066 63.081 120.788 63.3855 121.758 63.3855ZM135.352 47.7207C135.104 47.7207 134.901 47.6417 134.743 47.4838C134.585 47.3034 134.506 47.0891 134.506 46.841V43.6945C134.506 43.4464 134.585 43.2434 134.743 43.0855C134.923 42.9051 135.126 42.8148 135.352 42.8148H139.581C139.829 42.8148 140.032 42.9051 140.19 43.0855C140.37 43.2434 140.461 43.4464 140.461 43.6945V46.841C140.461 47.0891 140.37 47.3034 140.19 47.4838C140.032 47.6417 139.829 47.7207 139.581 47.7207H135.352ZM135.352 67.75C135.126 67.75 134.923 67.6711 134.743 67.5132C134.585 67.3327 134.506 67.1297 134.506 66.9042V51.0025C134.506 50.7544 134.585 50.5514 134.743 50.3935C134.923 50.2356 135.126 50.1567 135.352 50.1567H139.581C139.829 50.1567 140.032 50.2356 140.19 50.3935C140.37 50.5514 140.461 50.7544 140.461 51.0025V66.9042C140.461 67.1523 140.37 67.3553 140.19 67.5132C140.032 67.6711 139.829 67.75 139.581 67.75H135.352ZM153.894 67.75C149.112 67.75 146.721 65.5057 146.721 61.0172V54.758H144.048C143.823 54.758 143.62 54.6791 143.439 54.5212C143.281 54.3407 143.202 54.1377 143.202 53.9122V51.0025C143.202 50.7544 143.281 50.5514 143.439 50.3935C143.62 50.2356 143.823 50.1567 144.048 50.1567H146.721V44.5742C146.721 44.3261 146.8 44.1231 146.958 43.9652C147.138 43.8073 147.341 43.7283 147.567 43.7283H151.728C151.977 43.7283 152.18 43.8073 152.337 43.9652C152.495 44.1231 152.574 44.3261 152.574 44.5742V50.1567H156.803C157.052 50.1567 157.255 50.2356 157.412 50.3935C157.593 50.5514 157.683 50.7544 157.683 51.0025V53.9122C157.683 54.1603 157.593 54.3633 157.412 54.5212C157.255 54.6791 157.052 54.758 156.803 54.758H152.574V60.5097C152.574 61.2991 152.721 61.8968 153.014 62.3028C153.307 62.7088 153.781 62.9118 154.435 62.9118H157.108C157.356 62.9118 157.559 63.0021 157.717 63.1825C157.875 63.3404 157.954 63.5434 157.954 63.7915V66.9042C157.954 67.1297 157.875 67.3327 157.717 67.5132C157.559 67.6711 157.356 67.75 157.108 67.75H153.894Z" fill="white"/>
<path d="M178.576 68.0883C175.644 68.0883 173.444 67.2651 171.978 65.6185C170.512 63.9494 169.723 61.7164 169.61 58.9195C169.587 58.3105 169.576 57.3181 169.576 55.9422C169.576 54.5437 169.587 53.5287 169.61 52.8972C169.723 50.1003 170.512 47.8786 171.978 46.232C173.444 44.5629 175.644 43.7283 178.576 43.7283C180.583 43.7283 182.252 44.1005 183.583 44.8448C184.914 45.5666 185.895 46.4914 186.527 47.6192C187.181 48.7244 187.542 49.8634 187.609 51.0363V51.104C187.609 51.2844 187.542 51.4311 187.406 51.5438C187.271 51.6566 187.102 51.713 186.899 51.713H186.222C185.816 51.713 185.568 51.4762 185.478 51.0025C185.049 49.0853 184.271 47.7319 183.143 46.9425C182.016 46.1531 180.493 45.7583 178.576 45.7583C176.456 45.7583 174.809 46.3561 173.636 47.5515C172.463 48.7469 171.832 50.5852 171.741 53.0663C171.719 53.6753 171.708 54.6114 171.708 55.8745C171.708 57.1376 171.719 58.0962 171.741 58.7503C171.832 61.2314 172.463 63.0697 173.636 64.2652C174.809 65.4606 176.456 66.0583 178.576 66.0583C180.493 66.0583 182.016 65.6636 183.143 64.8742C184.271 64.0847 185.049 62.7314 185.478 60.8142C185.568 60.3405 185.816 60.1037 186.222 60.1037H186.899C187.102 60.1037 187.271 60.1713 187.406 60.3067C187.564 60.4194 187.632 60.5773 187.609 60.7803C187.542 61.9532 187.181 63.1036 186.527 64.2313C185.895 65.3366 184.914 66.2613 183.583 67.0057C182.252 67.7274 180.583 68.0883 178.576 68.0883ZM197.23 68.0883C196.148 68.0883 195.144 67.8628 194.219 67.4117C193.294 66.9606 192.55 66.3516 191.986 65.5847C191.445 64.8178 191.174 63.9719 191.174 63.0472C191.174 61.5585 191.772 60.3405 192.967 59.3932C194.185 58.4458 195.821 57.8368 197.873 57.5662L203.219 56.8218V55.6377C203.219 54.3971 202.835 53.4498 202.069 52.7957C201.324 52.119 200.174 51.7807 198.618 51.7807C197.467 51.7807 196.52 52.0062 195.776 52.4573C195.054 52.9084 194.591 53.4498 194.388 54.0813C194.298 54.352 194.185 54.5437 194.05 54.6565C193.937 54.7467 193.779 54.7918 193.576 54.7918H193.103C192.9 54.7918 192.719 54.7242 192.561 54.5888C192.426 54.4309 192.358 54.2505 192.358 54.0475C192.358 53.5513 192.584 52.9761 193.035 52.322C193.486 51.6453 194.185 51.0589 195.133 50.5627C196.08 50.0664 197.242 49.8183 198.618 49.8183C201.031 49.8183 202.745 50.3935 203.76 51.5438C204.775 52.6942 205.283 54.0926 205.283 55.7392V67.0057C205.283 67.2312 205.215 67.4117 205.08 67.547C204.944 67.6823 204.764 67.75 204.538 67.75H203.963C203.738 67.75 203.557 67.6823 203.422 67.547C203.287 67.4117 203.219 67.2312 203.219 67.0057V65.4155C202.723 66.1598 201.99 66.7914 201.02 67.3102C200.072 67.8289 198.809 68.0883 197.23 68.0883ZM197.569 66.126C199.215 66.126 200.569 65.5847 201.629 64.502C202.689 63.4193 203.219 61.863 203.219 59.833V58.6827L198.854 59.2917C197.005 59.5398 195.606 59.9683 194.659 60.5773C193.712 61.1863 193.238 61.9532 193.238 62.878C193.238 63.9156 193.667 64.7163 194.524 65.2802C195.403 65.8441 196.418 66.126 197.569 66.126ZM211.749 74.1783C211.524 74.1783 211.343 74.1107 211.208 73.9753C211.073 73.84 211.005 73.6596 211.005 73.434V50.901C211.005 50.6754 211.073 50.495 211.208 50.3597C211.343 50.2243 211.524 50.1567 211.749 50.1567H212.325C212.55 50.1567 212.731 50.2243 212.866 50.3597C213.001 50.495 213.069 50.6754 213.069 50.901V52.4912C214.377 50.7093 216.272 49.8183 218.753 49.8183C221.189 49.8183 222.982 50.5965 224.132 52.1528C225.305 53.6866 225.926 55.5813 225.993 57.8368C226.016 58.0624 226.027 58.4346 226.027 58.9533C226.027 59.4721 226.016 59.8443 225.993 60.0698C225.926 62.3254 225.305 64.2313 224.132 65.7877C222.982 67.3214 221.189 68.0883 218.753 68.0883C216.294 68.0883 214.4 67.1974 213.069 65.4155V73.434C213.069 73.6596 213.001 73.84 212.866 73.9753C212.731 74.1107 212.55 74.1783 212.325 74.1783H211.749ZM218.55 66.126C220.377 66.126 221.708 65.5508 222.542 64.4005C223.399 63.2276 223.862 61.7277 223.929 59.9007C223.952 59.6751 223.963 59.3593 223.963 58.9533C223.963 56.8557 223.557 55.1414 222.745 53.8107C221.933 52.4573 220.535 51.7807 218.55 51.7807C216.768 51.7807 215.426 52.3784 214.524 53.5738C213.621 54.7467 213.137 56.1339 213.069 57.7353L213.035 59.0548L213.069 60.3743C213.091 61.3442 213.306 62.269 213.712 63.1487C214.118 64.0058 214.727 64.7163 215.539 65.2802C216.351 65.8441 217.354 66.126 218.55 66.126ZM231.341 46.5365C231.115 46.5365 230.935 46.4688 230.799 46.3335C230.664 46.1982 230.596 46.0177 230.596 45.7922V44.5065C230.596 44.2809 230.664 44.1005 230.799 43.9652C230.935 43.8073 231.115 43.7283 231.341 43.7283H232.626C232.852 43.7283 233.032 43.8073 233.168 43.9652C233.326 44.1005 233.405 44.2809 233.405 44.5065V45.7922C233.405 46.0177 233.326 46.1982 233.168 46.3335C233.032 46.4688 232.852 46.5365 232.626 46.5365H231.341ZM231.713 67.75C231.487 67.75 231.307 67.6823 231.172 67.547C231.036 67.4117 230.969 67.2312 230.969 67.0057V50.901C230.969 50.6754 231.036 50.495 231.172 50.3597C231.307 50.2243 231.487 50.1567 231.713 50.1567H232.288C232.514 50.1567 232.694 50.2243 232.829 50.3597C232.965 50.495 233.032 50.6754 233.032 50.901V67.0057C233.032 67.2312 232.965 67.4117 232.829 67.547C232.694 67.6823 232.514 67.75 232.288 67.75H231.713ZM244.761 67.75C243.092 67.75 241.908 67.2538 241.208 66.2613C240.509 65.2463 240.16 63.8592 240.16 62.0998V52.119H237.521C237.295 52.119 237.115 52.0513 236.979 51.916C236.844 51.7807 236.776 51.6002 236.776 51.3747V50.901C236.776 50.6754 236.844 50.495 236.979 50.3597C237.115 50.2243 237.295 50.1567 237.521 50.1567H240.16V44.4727C240.16 44.2471 240.227 44.0667 240.363 43.9313C240.498 43.796 240.678 43.7283 240.904 43.7283H241.479C241.705 43.7283 241.885 43.796 242.02 43.9313C242.156 44.0667 242.223 44.2471 242.223 44.4727V50.1567H246.419C246.644 50.1567 246.825 50.2243 246.96 50.3597C247.095 50.495 247.163 50.6754 247.163 50.901V51.3747C247.163 51.6002 247.095 51.7807 246.96 51.916C246.825 52.0513 246.644 52.119 246.419 52.119H242.223V61.9645C242.223 63.2276 242.426 64.1862 242.832 64.8403C243.261 65.4719 243.96 65.7877 244.93 65.7877H246.757C246.983 65.7877 247.163 65.8553 247.298 65.9907C247.434 66.126 247.501 66.3064 247.501 66.532V67.0057C247.501 67.2312 247.434 67.4117 247.298 67.547C247.163 67.6823 246.983 67.75 246.757 67.75H244.761ZM256.074 68.0883C254.991 68.0883 253.988 67.8628 253.063 67.4117C252.138 66.9606 251.394 66.3516 250.83 65.5847C250.288 64.8178 250.018 63.9719 250.018 63.0472C250.018 61.5585 250.615 60.3405 251.811 59.3932C253.029 58.4458 254.664 57.8368 256.717 57.5662L262.062 56.8218V55.6377C262.062 54.3971 261.679 53.4498 260.912 52.7957C260.168 52.119 259.017 51.7807 257.461 51.7807C256.311 51.7807 255.363 52.0062 254.619 52.4573C253.897 52.9084 253.435 53.4498 253.232 54.0813C253.142 54.352 253.029 54.5437 252.894 54.6565C252.781 54.7467 252.623 54.7918 252.42 54.7918H251.946C251.743 54.7918 251.563 54.7242 251.405 54.5888C251.27 54.4309 251.202 54.2505 251.202 54.0475C251.202 53.5513 251.427 52.9761 251.879 52.322C252.33 51.6453 253.029 51.0589 253.976 50.5627C254.924 50.0664 256.085 49.8183 257.461 49.8183C259.875 49.8183 261.589 50.3935 262.604 51.5438C263.619 52.6942 264.126 54.0926 264.126 55.7392V67.0057C264.126 67.2312 264.059 67.4117 263.923 67.547C263.788 67.6823 263.607 67.75 263.382 67.75H262.807C262.581 67.75 262.401 67.6823 262.265 67.547C262.13 67.4117 262.062 67.2312 262.062 67.0057V65.4155C261.566 66.1598 260.833 66.7914 259.863 67.3102C258.916 67.8289 257.653 68.0883 256.074 68.0883ZM256.412 66.126C258.059 66.126 259.412 65.5847 260.472 64.502C261.532 63.4193 262.062 61.863 262.062 59.833V58.6827L257.698 59.2917C255.848 59.5398 254.45 59.9683 253.503 60.5773C252.555 61.1863 252.082 61.9532 252.082 62.878C252.082 63.9156 252.51 64.7163 253.367 65.2802C254.247 65.8441 255.262 66.126 256.412 66.126ZM270.593 67.75C270.367 67.75 270.187 67.6823 270.052 67.547C269.916 67.4117 269.849 67.2312 269.849 67.0057V44.4727C269.849 44.2471 269.916 44.0667 270.052 43.9313C270.187 43.796 270.367 43.7283 270.593 43.7283H271.168C271.394 43.7283 271.574 43.796 271.709 43.9313C271.845 44.0667 271.912 44.2471 271.912 44.4727V67.0057C271.912 67.2312 271.845 67.4117 271.709 67.547C271.574 67.6823 271.394 67.75 271.168 67.75H270.593Z" fill="white"/>
</svg>
