<svg width="330" height="110" viewBox="0 0 330 110" fill="none" xmlns="http://www.w3.org/2000/svg">
<path d="M110.275 43.7465V47.5358H100.227V53.9303H108.279V57.5843H100.227V67.6328H95.4563V43.7465H110.275ZM131.462 57.5505C131.462 58.0241 131.405 58.5655 131.293 59.1745H117.556C117.624 60.8436 118.075 62.0729 118.91 62.8623C119.744 63.6518 120.782 64.0465 122.022 64.0465C123.128 64.0465 124.041 63.7758 124.763 63.2345C125.507 62.6931 125.981 61.9601 126.184 61.0353H131.225C130.977 62.3435 130.447 63.5164 129.635 64.554C128.823 65.5915 127.774 66.4035 126.488 66.99C125.225 67.5764 123.816 67.8696 122.259 67.8696C120.432 67.8696 118.808 67.4862 117.387 66.7193C115.966 65.9299 114.861 64.8134 114.072 63.3698C113.282 61.9263 112.887 60.2233 112.887 58.261C112.887 56.2986 113.282 54.5957 114.072 53.1521C114.861 51.686 115.966 50.5695 117.387 49.8026C118.808 49.0358 120.432 48.6523 122.259 48.6523C124.109 48.6523 125.721 49.0358 127.097 49.8026C128.496 50.5695 129.567 51.6296 130.312 52.983C131.078 54.3138 131.462 55.8363 131.462 57.5505ZM126.658 57.0768C126.725 55.543 126.319 54.3814 125.44 53.592C124.582 52.8025 123.522 52.4078 122.259 52.4078C120.974 52.4078 119.891 52.8025 119.011 53.592C118.132 54.3814 117.647 55.543 117.556 57.0768H126.658ZM146.352 48.6185C148.517 48.6185 150.243 49.329 151.528 50.75C152.814 52.171 153.457 54.1671 153.457 56.7385V67.6328H148.72V57.2798C148.72 55.7911 148.337 54.6408 147.57 53.8288C146.803 52.9943 145.754 52.577 144.423 52.577C143.07 52.577 141.987 53.0168 141.175 53.8965C140.363 54.7761 139.957 56.0393 139.957 57.6858V67.6328H135.187V48.8891H139.957V52.6446C140.453 51.3815 141.265 50.4004 142.393 49.7011C143.544 48.9794 144.863 48.6185 146.352 48.6185ZM165.334 48.6523C166.913 48.6523 168.267 49.0245 169.394 49.7688C170.522 50.5131 171.323 51.5169 171.796 52.78V48.8891H176.533V67.7005C176.533 69.4373 176.184 70.9936 175.484 72.3695C174.808 73.7679 173.781 74.8619 172.405 75.6513C171.052 76.4408 169.406 76.8355 167.466 76.8355C164.759 76.8355 162.571 76.1926 160.902 74.907C159.233 73.6213 158.218 71.8733 157.857 69.6628H162.56C162.831 70.6101 163.349 71.3432 164.116 71.862C164.906 72.4033 165.909 72.674 167.127 72.674C168.526 72.674 169.654 72.2567 170.511 71.4221C171.368 70.6101 171.796 69.3696 171.796 67.7005V63.7081C171.323 64.9713 170.522 65.9863 169.394 66.7531C168.267 67.4975 166.913 67.8696 165.334 67.8696C163.755 67.8696 162.334 67.4862 161.071 66.7193C159.808 65.9524 158.816 64.8472 158.094 63.4036C157.395 61.9375 157.045 60.2233 157.045 58.261C157.045 56.2986 157.395 54.5957 158.094 53.1521C158.816 51.686 159.808 50.5695 161.071 49.8026C162.334 49.0358 163.755 48.6523 165.334 48.6523ZM166.823 52.8138C165.334 52.8138 164.139 53.2988 163.237 54.2686C162.334 55.2385 161.883 56.5693 161.883 58.261C161.883 59.9526 162.334 61.2834 163.237 62.2533C164.139 63.2006 165.334 63.6743 166.823 63.6743C168.267 63.6743 169.451 63.1894 170.375 62.2195C171.323 61.227 171.796 59.9075 171.796 58.261C171.796 56.5919 171.323 55.2724 170.375 54.3025C169.451 53.31 168.267 52.8138 166.823 52.8138ZM193.672 63.9788H201.69V67.6328H188.901V43.7465H193.672V63.9788ZM209.638 43.7465V67.6328H204.868V43.7465H209.638ZM218.893 43.7465V57.7535C218.893 59.6256 219.299 61.0353 220.111 61.9826C220.946 62.9074 222.141 63.3698 223.698 63.3698C225.231 63.3698 226.404 62.9074 227.216 61.9826C228.051 61.0353 228.468 59.6256 228.468 57.7535V43.7465H233.205V57.7535C233.205 59.9639 232.788 61.836 231.953 63.3698C231.141 64.881 230.002 66.0088 228.536 66.7531C227.092 67.4975 225.446 67.8696 223.596 67.8696C220.732 67.8696 218.442 67.0125 216.728 65.2983C215.014 63.5841 214.157 61.0691 214.157 57.7535V43.7465H218.893Z" fill="white"/>
</svg>
