<svg width="330" height="110" viewBox="0 0 330 110" fill="none" xmlns="http://www.w3.org/2000/svg">
<g clip-path="url(#clip0_5232_18182)">
<g opacity="0.6">
<path d="M202.297 61.4668L206.838 72.8362L211.422 61.4668H213.247L207.753 74.812H205.966L200.453 61.4668H202.297Z" fill="white"/>
<path d="M222.429 73.2745C221.948 73.834 221.333 74.2623 220.642 74.5195C219.92 74.7998 219.152 74.9437 218.378 74.9439C217.723 74.9717 217.069 74.8675 216.455 74.6374C215.841 74.4074 215.279 74.0561 214.804 73.6046C213.914 72.6525 213.432 71.3908 213.459 70.0882C213.486 68.7857 214.021 67.5452 214.949 66.631C215.877 65.7169 217.126 65.2013 218.429 65.1941C219.732 65.1869 220.986 65.6886 221.924 66.5925C222.82 67.5356 223.179 68.9 222.999 70.6857H215.002C215.033 71.0828 215.145 71.4693 215.332 71.8213C215.518 72.1733 215.775 72.4834 216.086 72.7323C216.743 73.2539 217.563 73.5262 218.402 73.5009C218.977 73.4992 219.548 73.3922 220.085 73.1849C220.589 73.0196 221.038 72.7214 221.387 72.322L222.433 73.2651L222.429 73.2745ZM221.514 69.3936C221.52 69.002 221.441 68.6138 221.284 68.2551C221.127 67.8964 220.895 67.5755 220.604 67.314C219.965 66.8002 219.159 66.5385 218.34 66.5783C217.539 66.5672 216.76 66.8375 216.138 67.3423C215.507 67.8446 215.099 68.5744 215.002 69.3747H221.5L221.514 69.3936Z" fill="white"/>
<path d="M225.376 65.3617H226.791L226.866 66.866C227.224 66.3449 227.706 65.922 228.27 65.6361C228.834 65.3502 229.46 65.2104 230.092 65.2297C230.644 65.2068 231.196 65.299 231.712 65.5003C232.227 65.7016 232.695 66.0076 233.086 66.3991C233.481 66.8268 233.786 67.3292 233.984 67.8767C234.181 68.4242 234.267 69.0057 234.237 69.5869V74.7741H232.676V69.5869C232.698 69.1968 232.642 68.8063 232.511 68.438C232.381 68.0697 232.179 67.7309 231.917 67.4413C231.64 67.1745 231.311 66.9676 230.951 66.8337C230.591 66.6998 230.207 66.6418 229.823 66.6632C229.43 66.6555 229.04 66.7324 228.68 66.8886C228.319 67.0449 227.997 67.2768 227.734 67.5686C227.192 68.1589 226.901 68.9368 226.923 69.7378V74.7741H225.376V65.3428V65.3617Z" fill="white"/>
<path d="M239.581 65.3995H242.486V66.734H239.557V71.6948C239.557 72.8989 240.052 73.5009 241.043 73.5009C241.501 73.4915 241.95 73.3735 242.354 73.1567L242.825 74.4535C242.256 74.7346 241.635 74.8952 241 74.925C239.026 74.9628 238.037 73.8923 238.034 71.7137V66.734H236.148V65.3995H238.034V62.8153L239.595 62.6455L239.581 65.3995Z" fill="white"/>
<path d="M252.006 74.7743L251.931 73.2747C251.573 73.7436 251.121 74.1314 250.602 74.4128C250.084 74.6941 249.512 74.8626 248.924 74.9071C248.336 74.9517 247.746 74.8713 247.191 74.6712C246.636 74.4711 246.13 74.1559 245.706 73.7463C245.316 73.3172 245.015 72.8148 244.821 72.2684C244.627 71.7219 244.543 71.1423 244.575 70.5632V65.376H246.121V70.5632C246.099 70.9545 246.155 71.3462 246.286 71.7155C246.417 72.0847 246.621 72.4241 246.885 72.7136C247.462 73.2344 248.218 73.5128 248.996 73.4909C249.773 73.4689 250.512 73.1483 251.059 72.5957C251.6 72.0072 251.889 71.2303 251.865 70.4312V65.3807H253.421V74.7743H252.006Z" fill="white"/>
<path d="M257.977 65.3618L258.09 66.7764C258.646 65.7343 259.613 65.2156 260.981 65.2156C261.77 65.1839 262.545 65.4366 263.164 65.9276L262.461 67.2574C261.983 66.9235 261.413 66.7456 260.83 66.7481C260.095 66.7338 259.384 67.012 258.854 67.5215C258.588 67.785 258.38 68.1009 258.243 68.4492C258.105 68.7974 258.042 69.1705 258.057 69.5445V74.7742H256.496V65.3806H257.944L257.977 65.3618Z" fill="white"/>
<path d="M273.004 73.2745C272.523 73.834 271.908 74.2623 271.217 74.5195C270.495 74.7998 269.727 74.9437 268.953 74.9439C268.298 74.9723 267.644 74.8683 267.03 74.6382C266.415 74.4081 265.854 74.0566 265.379 73.6046C264.489 72.6525 264.007 71.3908 264.034 70.0882C264.061 68.7857 264.596 67.5452 265.524 66.631C266.453 65.7169 267.701 65.2013 269.004 65.1941C270.307 65.1869 271.561 65.6886 272.499 66.5925C273.389 67.5356 273.747 68.9 273.574 70.6857H265.563C265.595 71.0826 265.708 71.4687 265.894 71.8205C266.081 72.1724 266.337 72.4826 266.647 72.7323C267.306 73.2531 268.128 73.5253 268.967 73.5009C269.543 73.4981 270.113 73.391 270.651 73.1849C271.154 73.0183 271.603 72.7204 271.952 72.322L272.999 73.2651L273.004 73.2745ZM272.061 69.3936C272.066 69.002 271.988 68.6138 271.831 68.2551C271.674 67.8964 271.442 67.5755 271.151 67.314C270.511 66.8002 269.706 66.5385 268.887 66.5783C268.087 66.5692 267.308 66.8393 266.685 67.3423C266.057 67.8529 265.654 68.5893 265.563 69.3936H272.061Z" fill="white"/>
<path d="M281.962 67.4745C281.23 66.8416 280.283 66.5141 279.317 66.5597C278.737 66.5268 278.158 66.6455 277.638 66.9039C277.441 66.9922 277.276 67.1373 277.162 67.3205C277.049 67.5037 276.993 67.7166 277.001 67.9319C277.001 68.677 277.787 69.1391 279.359 69.3183C279.802 69.3702 280.17 69.4173 280.453 69.4692C280.805 69.539 281.151 69.6319 281.491 69.7474C281.83 69.8486 282.149 70.0082 282.434 70.219C282.688 70.4412 282.898 70.7101 283.051 71.0112C283.232 71.3735 283.317 71.7763 283.297 72.1807C283.307 72.5973 283.207 73.0092 283.007 73.3745C282.806 73.7398 282.512 74.0454 282.155 74.2603C281.316 74.7764 280.343 75.0324 279.359 74.9959C277.495 74.9959 276.096 74.4065 275.162 73.2276L276.053 72.143C276.461 72.6267 276.976 73.0089 277.557 73.2593C278.138 73.5098 278.77 73.6216 279.402 73.586C279.968 73.5977 280.529 73.48 281.043 73.2417C281.263 73.1506 281.45 72.9952 281.581 72.7958C281.711 72.5964 281.778 72.3623 281.773 72.1241C281.788 71.9077 281.735 71.6922 281.62 71.5078C281.506 71.3234 281.337 71.1794 281.137 71.0961C280.537 70.839 279.901 70.6798 279.251 70.6245C278.79 70.5745 278.333 70.4925 277.883 70.3793C277.484 70.269 277.095 70.1222 276.723 69.9408C276.358 69.7688 276.049 69.4975 275.832 69.158C275.586 68.7136 275.482 68.2052 275.531 67.7001C275.581 67.1949 275.783 66.7167 276.11 66.3286C276.492 65.9042 276.98 65.5899 277.525 65.4185C278.105 65.2344 278.713 65.1499 279.321 65.1686C280.633 65.1147 281.915 65.5653 282.905 66.4276L282.014 67.4556L281.962 67.4745Z" fill="white"/>
</g>
<path d="M134.636 42.0039H123.72L117.264 50.7844L110.851 42.0039H99.9339L111.803 58.254L99.6934 74.8341H110.615L117.264 65.7235L123.955 74.8341H134.872L122.72 58.254L134.636 42.0039Z" fill="white"/>
<path d="M92.6528 42.0039H83.2734V74.8341H92.6528V42.0039Z" fill="white"/>
<path d="M151.288 42H141.908V74.8302H151.288V42Z" fill="white"/>
<path d="M181.77 59.2215L168.133 42.0283H160.668V74.8302L170.043 74.8019L170.047 57.6323L183.727 74.8302H191.155V42H181.775L181.77 59.2215Z" fill="white"/>
<path d="M70.9347 57.5891L71.2129 57.4099C71.5902 57.16 74.9053 54.8776 74.9053 50.8787C74.9053 45.7387 70.9064 42.0039 65.3891 42.0039H45.7344V74.8389H66.2285C72.1089 74.8389 76.2115 71.0145 76.2115 65.5349C76.2115 60.3477 71.7411 57.9899 71.2318 57.7353L70.9347 57.5891ZM55.2269 48.9123H62.937C64.894 48.9123 66.1578 50.0629 66.1578 51.8454C66.1578 53.2177 65.3137 54.6748 62.937 54.6748H55.2269V48.9123ZM62.9983 68.0625H55.2317V61.4936H62.9983C65.2052 61.4936 66.6341 62.7857 66.6341 64.7946C66.6341 66.8034 65.1392 68.0625 62.9983 68.0625Z" fill="white"/>
</g>
<defs>
<clipPath id="clip0_5232_18182">
<rect width="237.564" height="33" fill="white" transform="translate(45.7324 42)"/>
</clipPath>
</defs>
</svg>
