<svg width="330" height="110" viewBox="0 0 330 110" fill="none" xmlns="http://www.w3.org/2000/svg">
<path d="M75.6309 26.5273C75.8298 26.5273 75.9889 26.5677 76.1879 26.5677C92.7786 26.5677 109.369 26.5677 125.96 26.5677C126.159 26.5677 126.278 26.5677 126.557 26.5677C124.965 30.9215 123.374 35.235 121.822 39.5485C115.337 36.2831 108.892 32.9775 102.407 29.7121C102.407 41.5642 102.407 53.3356 102.407 65.1877C101.571 65.1877 100.736 65.1877 99.9003 65.1877C99.9003 53.4163 99.9003 41.6045 99.9003 29.7121C93.3754 33.0178 86.9699 36.3235 80.445 39.5888C80.2858 39.1857 80.1665 38.7826 80.0073 38.3391C78.575 34.5497 77.2223 30.7602 75.8298 26.9708C75.79 26.8902 75.7104 26.7692 75.6706 26.6886C75.6309 26.608 75.6309 26.608 75.6309 26.5273ZM79.2912 29.1477C80.1267 31.4052 80.9622 33.6628 81.7977 35.9203C86.2537 33.6628 90.67 31.4052 95.0464 29.188C95.0464 29.1477 95.0066 29.1477 95.0066 29.1074C89.7947 29.1477 84.5827 29.1477 79.2912 29.1477ZM122.857 29.1477C117.605 29.1477 112.353 29.1477 107.102 29.1477V29.188C111.518 31.4052 115.934 33.6628 120.35 35.9203C121.226 33.6628 122.021 31.4456 122.857 29.1477Z" fill="white"/>
<path d="M236.608 26.125C236.608 33.0992 236.608 40.1137 236.608 47.1282C237.403 47.2491 238.239 47.3298 239.035 47.4104C238.995 47.6926 238.955 48.0151 238.915 48.2973C236.727 48.2973 234.579 48.2973 232.351 48.2973C232.311 48.0554 232.231 47.7329 232.192 47.4104C232.828 47.2894 233.425 47.2088 234.061 47.1282C234.061 43.2581 234.061 39.3477 234.061 35.4374C231.873 35.4374 229.725 35.4374 227.497 35.4374C227.497 39.3477 227.497 43.2178 227.497 47.0879C228.372 47.1685 229.208 47.2088 230.162 47.2894C230.123 47.6523 230.043 47.9748 230.003 48.2973C227.616 48.2973 225.309 48.2973 222.921 48.2973C222.882 48.0554 222.802 47.7329 222.762 47.4104C223.518 47.2894 224.234 47.2088 224.99 47.1282C224.99 43.2581 224.99 39.3477 224.99 35.4374C224.115 35.4374 223.24 35.4374 222.285 35.4374C222.165 35.1148 222.285 34.873 222.444 34.6714C222.842 34.0264 223.359 33.7845 224.075 33.9055C224.354 33.9458 224.672 33.9055 224.95 33.9055C224.99 33.3814 225.03 32.8573 225.11 32.3332C225.309 31.1642 225.826 30.1563 226.582 29.2694C227.298 28.3825 228.054 27.4956 228.77 26.5281C228.929 26.3266 229.088 26.2863 229.367 26.2863C231.078 26.2863 232.749 26.2459 234.42 26.2056C234.618 26.2056 234.778 26.1653 234.977 26.125C235.573 26.125 236.091 26.125 236.608 26.125ZM234.101 28.0197C234.022 28.0197 233.942 28.0197 233.902 28.06C232.828 28.5841 231.714 28.6647 230.521 28.5841C230.083 28.5438 229.605 28.5841 229.168 28.5841C229.009 28.5841 228.889 28.6647 228.77 28.7857C228.014 29.5113 227.616 30.3579 227.616 31.406C227.576 32.2526 227.616 33.1395 227.616 34.0264C229.804 34.0264 231.953 34.0264 234.141 34.0264C234.101 32.0107 234.101 30.0354 234.101 28.0197Z" fill="white"/>
<path d="M107.419 52.4082C107.419 51.5213 107.419 50.6747 107.419 49.8281C109.965 49.8281 112.472 49.8281 114.978 49.8281C114.978 59.2211 114.978 68.6141 114.978 78.0071C105.708 78.0071 96.4779 78.0071 87.168 78.0071C87.168 68.6141 87.168 59.2211 87.168 49.8281C89.6745 49.8281 92.181 49.8281 94.7273 49.8281C94.7273 50.6747 94.7273 51.5213 94.7273 52.3679C93.0165 52.3679 91.3853 52.3679 89.6745 52.3679C89.6745 60.0677 89.6745 67.7675 89.6745 75.427C97.2338 75.427 104.833 75.427 112.432 75.427C112.432 67.7675 112.432 60.0677 112.432 52.3679C110.801 52.4082 109.13 52.4082 107.419 52.4082Z" fill="white"/>
<path d="M132.563 48.3778C132.524 48.0956 132.444 47.7731 132.404 47.4103C132.882 47.3297 133.359 47.249 133.837 47.1684C134.314 47.0878 134.791 47.0072 135.309 46.9668C135.309 46.8056 135.309 46.6847 135.309 46.5637C135.309 40.4764 135.309 34.4294 135.309 28.3825C135.309 28.0196 135.189 27.8987 134.871 27.8584C134.155 27.7778 133.439 27.6568 132.723 27.5762C132.603 27.5762 132.524 27.5359 132.444 27.4956C132.484 27.1731 132.563 26.8506 132.603 26.6087C133.28 26.6087 133.916 26.6087 134.593 26.6087C137.417 26.6087 140.242 26.5684 143.147 26.5684C145.016 26.5684 146.807 26.9312 148.398 27.8987C150.467 29.1484 151.7 30.9625 152.297 33.22C152.974 35.8807 152.934 38.5011 152.138 41.1214C151.183 44.3868 148.955 46.4428 145.812 47.5312C143.942 48.2166 142.033 48.3375 140.083 48.2569C137.935 48.1762 135.826 48.2569 133.677 48.2569C133.24 48.3778 132.922 48.3778 132.563 48.3778ZM138.054 27.9793C138.054 34.2279 138.054 40.4764 138.054 46.725C139.128 46.8056 140.202 46.8459 141.237 46.9668C143.982 47.2894 146.847 45.959 148.279 43.0565C149.831 39.912 149.99 36.6467 148.955 33.341C148.08 30.5997 146.21 28.7856 143.345 28.1003C141.595 27.6165 139.844 27.939 138.054 27.9793Z" fill="white"/>
<path d="M180.268 48.3783C179.91 48.1364 179.552 48.0154 179.154 47.7332C178.398 47.2092 177.961 46.0804 178.2 45.1935C178.239 45.0726 178.359 44.992 178.438 44.9516C179.314 44.3066 180.189 43.6616 181.144 42.9763C180.945 42.8957 180.825 42.815 180.626 42.7344C177.086 41.1622 177.483 37.2921 179.393 35.5183C180.626 34.3493 182.099 33.6236 183.69 33.3817C185.242 33.1399 186.714 33.6639 187.907 34.7121C187.987 34.7927 188.066 34.8733 188.146 34.954C188.663 34.4702 189.141 33.9864 189.658 33.5027C189.777 33.3817 189.976 33.3011 190.135 33.3011C190.613 33.2608 191.09 33.3011 191.568 33.3011C191.568 34.0671 191.568 34.7927 191.568 35.5587C190.613 35.5183 189.658 35.478 188.942 36.0827C189.021 36.7681 189.141 37.3728 189.141 38.0178C189.101 39.5094 188.385 40.6784 187.191 41.5653C186.037 42.4119 184.764 42.8554 183.411 43.2585C183.292 43.2988 183.173 43.2988 183.053 43.2585C182.536 43.0972 182.218 43.3794 181.9 43.7826C181.581 44.226 181.183 44.6291 180.786 45.0726C180.467 45.4757 180.507 45.9595 180.945 46.2417C181.183 46.3626 181.422 46.4432 181.661 46.4432C183.491 46.4432 185.361 46.4432 187.231 46.4432C187.828 46.4432 188.385 46.5239 188.942 46.6851C190.692 47.1286 191.568 48.7008 191.011 50.4342C190.613 51.7243 189.737 52.6515 188.703 53.4174C187.191 54.5865 185.52 55.3524 183.69 55.8362C183.093 55.9975 182.457 55.8765 181.86 55.8362C180.865 55.7556 179.871 55.554 178.955 55.0703C177.205 54.1431 176.887 52.5708 176.966 51.1599C176.966 51.0389 177.125 50.918 177.205 50.8374C178.08 50.1117 178.955 49.3458 179.871 48.6201C180.069 48.4992 180.149 48.4186 180.268 48.3783ZM183.65 54.264C184.923 54.264 186.077 53.9012 187.072 53.0949C187.788 52.4902 188.345 51.8049 188.544 50.8374C188.783 49.6683 188.385 49.0636 187.271 48.7814C186.952 48.7008 186.594 48.6605 186.316 48.6605C184.724 48.6201 183.173 48.6201 181.621 48.6201C181.502 48.6201 181.343 48.6605 181.263 48.7411C180.746 49.4667 180.189 50.1117 179.711 50.8374C179.353 51.4421 179.433 52.0871 179.831 52.6111C180.069 52.9337 180.388 53.2158 180.706 53.4174C181.581 54.0624 182.616 54.2237 183.65 54.264ZM180.547 37.9371C180.587 38.3 180.626 38.6628 180.706 39.0256C181.064 40.9606 182.377 42.0088 184.247 41.8878C185.361 41.8072 186.316 41.1622 186.555 40.1544C186.952 38.5015 186.674 36.9696 185.6 35.6796C184.844 34.7927 183.809 34.5508 182.656 34.833C181.621 35.0749 180.985 35.8005 180.746 36.8487C180.626 37.1712 180.587 37.5743 180.547 37.9371Z" fill="white"/>
<path d="M169.29 77.6049C169.29 79.6206 169.29 81.6363 169.29 83.6922C170.404 83.8132 171.479 83.9341 172.593 84.0147C172.553 84.2969 172.513 84.5791 172.433 84.821C172.394 84.9016 172.235 85.0226 172.155 85.0226C170.961 85.0226 169.808 84.942 168.654 84.942C167.42 84.942 166.227 84.9823 164.993 85.0226C164.874 85.0226 164.795 85.0226 164.675 85.0226C164.635 84.7001 164.556 84.3776 164.476 84.0551C165.192 83.9341 165.948 83.8132 166.704 83.7326C166.704 77.5243 166.704 71.3161 166.704 65.1079C165.988 65.1885 165.232 65.2691 164.476 65.3497C164.436 65.0675 164.357 64.745 164.277 64.3822C165.829 64.0597 167.301 63.3341 168.932 63.2938C168.972 64.1 169.052 64.9466 169.091 65.7932C169.211 65.7125 169.29 65.6722 169.33 65.6319C170.444 64.7853 171.558 63.8985 172.672 63.0519C172.792 62.9712 172.911 62.8906 173.03 62.8906C174.781 62.8906 176.372 63.3744 177.606 64.7047C178.521 65.7126 178.919 66.9219 179.157 68.2523C179.396 69.7439 179.396 71.2355 178.998 72.727C178.401 74.9846 177.009 76.5971 174.86 77.4437C173.906 77.8065 172.831 78.0887 171.797 78.25C170.961 78.4112 170.126 78.0887 169.41 77.7259C169.45 77.6856 169.37 77.6453 169.29 77.6049C169.33 77.6049 169.33 77.6049 169.29 77.6049ZM169.29 71.0742C169.29 72.2836 169.29 73.4527 169.29 74.6621C169.29 74.8233 169.37 75.0249 169.45 75.1458C170.325 76.3955 172.235 77.0809 173.707 76.7181C175.099 76.3552 175.895 75.3474 176.372 74.0171C176.929 72.4852 176.929 70.913 176.73 69.3407C176.571 68.212 176.333 67.1638 175.696 66.2366C174.821 64.9063 173.547 64.5032 172.115 65.3094C171.16 65.8335 170.285 66.5188 169.41 67.1235C169.29 67.2041 169.251 67.3654 169.251 67.5266C169.251 68.6957 169.29 69.8648 169.29 71.0742Z" fill="white"/>
<path d="M151.503 61.8416C151.026 61.8416 150.628 61.8416 150.19 61.8416C149.951 61.8416 149.912 61.761 149.832 61.5997C149.593 60.8741 149.355 60.1081 149.076 59.3825C148.957 59.1406 148.837 58.8987 148.638 58.6972C145.177 55.714 138.016 56.1574 136.265 62.7285C135.35 66.2357 135.628 69.6624 137.618 72.8068C139.329 75.5078 141.795 76.9187 145.058 76.7575C146.371 76.6768 147.524 76.0318 148.519 75.1853C148.837 74.9031 148.997 74.379 149.195 73.9356C149.514 73.2905 149.872 72.6455 150.19 72.0005C150.27 71.8796 150.429 71.7586 150.588 71.7586C150.986 71.7183 151.423 71.7586 151.901 71.7586C151.622 73.089 151.344 74.4596 151.065 75.7496C151.026 75.8303 150.906 75.9512 150.827 75.9915C148.638 77.0397 146.41 77.8863 144.023 78.2894C142.83 78.5313 141.716 78.2491 140.562 77.9266C136.146 76.6768 133.241 73.089 132.843 68.4933C132.644 66.1551 132.883 63.8573 133.918 61.761C135.111 59.3825 137.021 57.77 139.408 56.7621C141 56.0768 142.631 55.5527 144.381 55.5527C146.967 55.5527 149.235 56.4396 151.344 57.8909C151.463 57.9715 151.543 58.0925 151.543 58.1731C151.543 59.3422 151.503 60.5919 151.503 61.8416Z" fill="white"/>
<path d="M212.22 47.3702C212.181 47.6928 212.101 48.0153 212.061 48.2975C209.992 48.2975 207.924 48.2975 205.815 48.2975C205.775 48.0556 205.696 47.6928 205.656 47.3702C206.412 47.2493 207.168 47.1687 207.924 47.0881C207.924 43.2583 207.924 39.4285 207.924 35.5988C207.207 35.6794 206.451 35.76 205.735 35.8407C205.696 35.5182 205.616 35.1957 205.576 34.9135C206.372 34.5103 209.396 33.7444 210.191 33.825C210.271 34.6313 210.311 35.5182 210.39 36.4051C210.589 36.2841 210.669 36.2035 210.788 36.1632C212.022 35.3166 213.334 34.4297 214.568 33.6234C214.767 33.5025 214.966 33.4219 215.165 33.4219C215.682 33.4219 216.199 33.4622 216.716 33.5428C218.347 33.7847 219.103 34.7119 219.302 36.4051C219.382 36.9694 219.382 37.5741 219.422 38.1385C219.422 41.0008 219.422 43.863 219.422 46.8059C219.422 47.1284 219.541 47.2493 219.82 47.2493C220.496 47.2896 221.172 47.4106 221.928 47.4912C221.888 47.8137 221.809 48.1362 221.769 48.4184C219.66 48.4184 217.631 48.4184 215.523 48.4184C215.483 48.1362 215.403 47.8137 215.364 47.4912C215.921 47.3703 216.438 47.2896 216.995 47.209C216.995 47.0477 216.995 46.9671 216.995 46.8059C216.995 43.9839 216.995 41.1217 216.995 38.2998C216.995 38.2192 216.995 38.0982 216.995 38.0579C216.915 35.9213 215.443 35.4779 214.011 35.881C213.533 36.0422 213.096 36.2438 212.658 36.526C211.982 36.8888 211.385 37.3323 210.709 37.7757C210.589 37.8563 210.51 38.0176 210.51 38.1385C210.51 41.0814 210.51 44.0243 210.51 47.0074C210.51 47.2493 210.589 47.2896 210.748 47.2896C211.186 47.209 211.663 47.3299 212.22 47.3702Z" fill="white"/>
<path d="M249.855 35.0739C249.378 34.953 248.94 34.8321 248.463 34.7514C248.503 34.4289 248.542 34.1064 248.622 33.8242C250.333 33.8242 252.083 33.8242 253.834 33.8242C253.874 34.0661 253.953 34.4289 253.993 34.7514C253.436 34.8321 252.919 34.953 252.362 34.9933C252.083 35.0336 251.924 35.1546 251.805 35.4367C250.253 39.5084 248.741 43.6203 247.15 47.6113C246.076 50.2317 244.922 52.8117 243.768 55.3918C243.728 55.4724 243.569 55.6337 243.529 55.6337C242.495 55.6337 241.421 55.6337 240.346 55.6337C240.346 54.7065 240.346 53.8196 240.346 52.8521C240.824 52.8521 241.301 52.8118 241.779 52.8521C242.455 52.9327 242.813 52.6505 243.131 52.1264C243.887 50.8767 244.643 49.627 245.399 48.4176C245.439 48.337 245.519 48.216 245.598 48.1354C245.359 48.216 245.2 48.2564 244.922 48.2967C244.603 47.4904 244.285 46.6438 243.967 45.7973C242.654 42.3706 241.341 38.944 240.028 35.4771C239.909 35.1949 239.789 35.0739 239.471 35.0739C238.914 34.9933 238.397 34.9127 237.84 34.832C237.88 34.5095 237.959 34.187 237.999 33.9049C240.187 33.9049 242.296 33.9049 244.524 33.9049C244.564 34.1467 244.643 34.5095 244.683 34.832C243.967 34.953 243.291 35.0739 242.535 35.1546C243.012 36.4849 243.45 37.8152 243.927 39.0649C244.484 40.5968 245.001 42.1287 245.558 43.6203C245.797 44.346 245.956 45.0716 245.996 45.8376C245.996 45.9988 246.036 46.1198 246.155 46.281C247.388 42.5319 248.622 38.8634 249.855 35.0739Z" fill="white"/>
<path d="M191.326 41.3633C191.366 39.4282 191.804 37.6142 193.117 36.1226C194.27 34.8325 195.742 34.1875 197.334 33.6635C200.358 32.7362 203.739 34.4697 204.893 37.6142C205.729 39.8314 205.729 42.1292 204.814 44.3061C203.899 46.5637 202.068 47.7328 199.801 48.4987C196.021 49.7484 192.042 47.2087 191.366 42.8952C191.406 42.3711 191.366 41.847 191.326 41.3633ZM202.983 41.0408C202.944 40.7989 202.944 40.2748 202.864 39.7911C202.625 38.2995 202.108 36.9691 200.915 35.921C199.204 34.3891 195.981 34.0666 194.628 37.2916C193.872 39.1057 193.713 41.0005 194.151 42.8952C194.469 44.3465 195.146 45.5962 196.339 46.5234C198.05 47.8134 200.755 47.894 202.068 45.2737C202.745 43.9836 202.944 42.6533 202.983 41.0408Z" fill="white"/>
<path d="M165.271 76.1944C165.311 76.5169 165.35 76.8394 165.39 77.2022C164.197 77.4441 163.043 77.6456 161.849 77.9278C161.571 77.1619 161.253 76.3959 160.934 75.5897C160.815 75.6703 160.695 75.7509 160.616 75.8316C159.581 76.5975 158.507 77.4038 157.473 78.1294C157.314 78.2503 157.115 78.331 156.916 78.331C155.921 78.2907 154.966 78.0488 154.21 77.4038C152.858 76.3153 152.5 74.219 153.295 72.5662C153.574 71.9615 154.011 71.5583 154.648 71.3568C156.558 70.7521 158.467 70.0668 160.377 69.4217C160.616 69.3411 160.735 69.2202 160.695 68.938C160.656 68.0914 160.735 67.2045 160.616 66.3176C160.457 65.0276 159.82 64.5438 158.507 64.6648C157.791 64.7454 157.075 64.947 156.319 65.1485C156.16 65.1889 156.041 65.3904 156.001 65.5114C155.802 66.1564 155.682 66.7611 155.523 67.4464C154.807 67.4464 154.051 67.4464 153.295 67.4464C153.295 66.7208 153.295 66.0757 153.295 65.3904C153.295 65.3098 153.415 65.1889 153.494 65.1485C155.165 64.4229 156.757 63.6166 158.428 62.891C158.507 62.8507 158.627 62.8104 158.666 62.8507C159.303 62.891 159.9 62.891 160.497 63.0119C162.088 63.2941 162.804 64.1004 163.003 65.7129C163.083 66.4386 163.162 67.1642 163.162 67.9302C163.162 70.0264 163.162 72.1227 163.162 74.219C163.162 74.864 163.242 75.4687 163.56 75.9928C163.64 76.1137 163.799 76.2347 163.958 76.2347C164.356 76.1944 164.793 76.1944 165.271 76.1944ZM160.695 70.4296C160.497 70.5102 160.417 70.5505 160.298 70.5908C158.985 71.1552 157.632 71.7599 156.279 72.284C155.802 72.4856 155.563 72.8081 155.404 73.2918C155.205 73.8562 155.245 74.4206 155.404 74.9447C155.643 75.7509 156.2 76.2347 157.075 76.1944C157.552 76.1541 158.07 76.0734 158.467 75.8719C159.184 75.4687 159.9 74.9447 160.616 74.4609C160.695 74.4206 160.775 74.2997 160.775 74.219C160.696 72.929 160.695 71.6793 160.695 70.4296Z" fill="white"/>
<path d="M209.273 76.1954C208.835 76.1954 208.437 76.155 208.04 76.1954C207.801 76.1954 207.681 76.0744 207.562 75.9132C207.284 75.3085 207.204 74.6634 207.204 73.9781C207.204 71.8012 207.204 69.6243 207.204 67.4474C207.204 66.6814 207.085 65.8348 206.965 65.0689C206.806 64.3433 206.448 63.6982 205.732 63.3354C204.737 62.8517 203.703 62.8113 202.629 62.8517C202.549 62.8517 202.509 62.892 202.43 62.9323C200.799 63.6579 199.167 64.4239 197.536 65.1495C197.457 65.1898 197.337 65.3108 197.297 65.3914C197.297 66.0767 197.297 66.7217 197.297 67.4474C198.014 67.4474 198.69 67.4474 199.406 67.4474C199.486 67.4474 199.605 67.2861 199.645 67.2055C199.804 66.6411 199.923 66.0364 200.082 65.472C200.122 65.3511 200.242 65.1898 200.321 65.1898C201.157 64.9883 202.032 64.7464 202.907 64.6658C204.021 64.5851 204.618 65.1495 204.698 66.2783C204.777 67.1652 204.737 68.0521 204.777 68.9793C204.777 69.2212 204.658 69.3018 204.459 69.3824C202.509 70.0677 200.6 70.7127 198.65 71.3578C197.974 71.5996 197.576 71.9625 197.337 72.5672C196.621 74.0991 196.78 75.8728 197.854 77.0419C198.73 78.0095 199.923 78.2916 201.157 78.332C201.276 78.332 201.395 78.2513 201.515 78.1707C202.271 77.6063 203.066 77.0419 203.822 76.4372C204.18 76.1954 204.538 75.8728 204.976 75.5907C205.294 76.3969 205.613 77.1629 205.891 77.9288C207.085 77.6869 208.238 77.4854 209.432 77.2435C209.352 76.8404 209.313 76.5179 209.273 76.1954ZM204.737 74.1394C204.737 74.22 204.658 74.3409 204.578 74.3813C203.902 74.865 203.265 75.3488 202.549 75.7519C201.913 76.1147 201.276 76.3163 200.52 76.0744C200.003 75.9132 199.685 75.5907 199.446 75.1069C199.207 74.4216 199.207 73.7362 199.406 73.0509C199.565 72.6478 199.764 72.3656 200.202 72.2043C201.554 71.64 202.907 71.0353 204.339 70.4709C204.459 70.4306 204.578 70.3902 204.698 70.3096C204.777 71.6803 204.777 72.93 204.737 74.1394Z" fill="white"/>
<path d="M165.234 37.9765C165.234 37.2509 165.234 36.6059 165.234 35.9609C165.234 35.8802 165.353 35.719 165.473 35.719C167.104 34.9934 168.695 34.1468 170.366 33.5018C170.804 33.3002 171.401 33.4615 171.918 33.4615C172.157 33.4615 172.356 33.5018 172.594 33.5824C174.186 33.9049 174.942 34.8321 175.021 36.6462C175.101 39.065 175.101 41.4838 175.141 43.9429C175.141 44.467 175.181 45.0314 175.22 45.5554C175.22 45.7167 175.26 45.7973 175.3 45.9586C175.539 46.7648 175.578 46.8454 176.454 46.8454C176.692 46.8454 176.971 46.8454 177.249 46.8454C177.289 47.168 177.329 47.4905 177.369 47.813C176.175 48.0548 175.021 48.2564 173.828 48.4983C173.549 47.7323 173.231 46.9664 172.913 46.1601C172.754 46.2811 172.674 46.3617 172.555 46.402C171.52 47.1276 170.486 47.9339 169.451 48.6595C169.332 48.7402 169.213 48.8611 169.093 48.8611C167.661 48.8611 166.348 48.458 165.473 47.168C164.598 45.8779 164.598 44.4267 165.274 42.9754C165.513 42.3707 165.95 42.0482 166.547 41.8063C168.497 41.2016 170.406 40.5163 172.316 39.8713C172.594 39.7503 172.714 39.6294 172.674 39.3472C172.634 38.5409 172.634 37.6943 172.594 36.9284C172.515 35.6787 171.878 35.074 170.645 35.1949C169.849 35.2756 169.054 35.4771 168.258 35.6787C168.138 35.719 168.019 35.9206 167.979 36.0012C167.82 36.5656 167.701 37.1703 167.542 37.7347C167.502 37.8556 167.343 37.9765 167.303 37.9765C166.627 37.9765 165.95 37.9765 165.234 37.9765ZM172.674 40.9597C172.475 41.0403 172.356 41.0807 172.236 41.1613C170.884 41.7257 169.531 42.3304 168.138 42.8947C167.82 43.056 167.542 43.2173 167.422 43.5801C167.104 44.346 167.104 45.1926 167.462 45.9182C167.701 46.3617 168.059 46.6036 168.497 46.7245C169.252 46.9261 169.929 46.6842 170.605 46.2811C171.242 45.8779 171.839 45.4345 172.475 45.0314C172.555 44.9507 172.674 44.8298 172.674 44.7492C172.674 43.4591 172.674 42.2497 172.674 40.9597Z" fill="white"/>
<path d="M214.76 76.5562C215.596 76.6771 216.391 76.7578 217.227 76.8384C217.187 77.1206 217.187 77.4028 217.108 77.6043C217.068 77.7253 216.869 77.8059 216.749 77.8059C215.874 77.8059 215.039 77.7253 214.124 77.7253C212.97 77.7253 211.816 77.7656 210.662 77.8059C210.503 77.8059 210.384 77.8059 210.185 77.8059C210.145 77.4834 210.065 77.2012 210.026 76.8384C210.742 76.7175 211.498 76.6368 212.254 76.5562C212.254 70.2673 212.254 63.9382 212.254 57.6493C211.537 57.6493 210.821 57.6493 210.065 57.6493C210.026 57.3671 209.946 57.0446 209.906 56.6818C211.537 56.319 213.049 55.553 214.76 55.5933C214.76 62.6078 214.76 69.582 214.76 76.5562Z" fill="white"/>
<path d="M191.767 59.4631C191.767 60.7934 191.767 62.2044 191.767 63.575C193.358 63.575 194.95 63.575 196.502 63.575C196.502 64.0185 196.502 64.4216 196.502 64.8651C194.91 64.8651 193.358 64.8651 191.807 64.8651C191.807 65.0666 191.767 65.1473 191.767 65.3085C191.767 68.1707 191.767 71.033 191.767 73.9355C191.767 74.1774 191.807 74.4596 191.847 74.7015C191.966 75.5078 192.483 75.9915 193.279 76.0318C193.995 76.0721 194.592 75.8706 195.268 75.5884C195.467 75.5078 195.666 75.3868 195.905 75.3465C196.064 75.6287 196.183 75.9512 196.382 76.2737C195.626 76.7172 194.87 77.1606 194.114 77.5637C193.955 77.6847 193.796 77.7653 193.637 77.8459C192.404 78.5716 191.29 78.2087 190.176 77.604C189.539 77.2815 189.459 76.5559 189.42 75.8706C189.38 75.3868 189.38 74.9031 189.38 74.4193C189.38 71.3958 189.38 68.3723 189.38 65.3488C189.38 65.1876 189.38 65.0263 189.38 64.8248C188.385 64.8248 187.391 64.8248 186.436 64.8248C186.316 64.5022 186.396 64.2604 186.635 64.0185C187.112 63.4138 187.709 63.1316 188.465 63.2928C188.783 63.3332 189.141 63.2928 189.539 63.2928C189.539 62.7285 189.499 62.1641 189.539 61.64C189.539 61.3981 189.658 61.1966 189.778 61.0353C190.136 60.5515 190.573 60.1081 191.011 59.6647C191.21 59.3422 191.21 59.3422 191.767 59.4631Z" fill="white"/>
<path d="M158.468 33.7442C158.468 35.0342 158.468 36.2839 158.468 37.5739C158.985 36.9692 159.503 36.4048 159.98 35.8405C160.577 35.1148 161.213 34.4295 161.77 33.7442C161.89 33.6232 162.089 33.5023 162.288 33.5023C162.964 33.462 163.601 33.5023 164.317 33.5023C164.317 34.4295 164.317 35.3164 164.317 36.2436C163.76 36.2436 163.203 36.2033 162.685 36.2436C162.327 36.2839 161.969 36.3645 161.651 36.4855C160.418 37.1305 159.463 38.0577 158.707 39.1864C158.627 39.2671 158.588 39.4283 158.588 39.4686C158.588 41.8874 158.588 44.3062 158.588 46.725C158.588 46.8056 158.588 46.846 158.627 46.9669C159.662 47.0878 160.736 47.1685 161.77 47.2491C161.731 47.6119 161.651 47.9747 161.611 48.2972C159.105 48.2972 156.598 48.2972 154.092 48.2972C154.052 48.015 153.972 47.6925 153.933 47.37C154.609 47.2894 155.206 47.1685 155.882 47.1281C156.121 47.0878 156.2 47.0072 156.2 46.8056C156.2 43.1371 156.2 39.509 156.2 35.8405C156.2 35.7598 156.2 35.7195 156.161 35.5986C155.444 35.6792 154.689 35.7598 153.933 35.8001C153.893 35.4776 153.813 35.1551 153.773 34.7923C155.365 34.5101 156.797 33.8248 158.468 33.7442Z" fill="white"/>
<path d="M187.265 76.8371C187.226 77.1596 187.146 77.4821 187.106 77.7643C186.39 77.7643 185.634 77.7643 184.918 77.7643C183.565 77.7643 182.213 77.8046 180.78 77.8046C180.184 77.8046 180.184 77.8046 180.064 77.2402C180.024 77.1193 180.024 76.9983 180.024 76.8774C180.741 76.7564 181.496 76.6758 182.252 76.5952C182.252 72.8057 182.252 68.976 182.252 65.1463C181.536 65.1866 180.78 65.2672 180.024 65.3075C179.985 64.985 179.905 64.6625 179.865 64.34C181.496 63.9772 183.048 63.2112 184.759 63.2515C184.759 67.7263 184.759 72.1607 184.759 76.5952C185.634 76.6355 186.39 76.7161 187.265 76.8371Z" fill="white"/>
<path d="M183.176 61.2377C183.096 61.2377 183.057 61.2781 182.977 61.2781C182.301 61.3184 182.142 61.1168 182.022 60.4718C181.903 59.7462 181.943 59.0608 182.142 58.3352C182.181 58.2143 182.261 58.0933 182.341 58.0933C183.136 58.053 184.012 57.8514 184.807 58.053C184.927 58.0933 185.046 58.2546 185.046 58.2949C185.205 59.1415 185.205 60.0283 184.927 60.8749C184.887 60.9959 184.728 61.1168 184.688 61.1168C184.131 61.1571 183.653 61.1974 183.176 61.2377Z" fill="white"/>
</svg>
