<svg width="330" height="110" viewBox="0 0 330 110" fill="none" xmlns="http://www.w3.org/2000/svg">
<path d="M36.5483 60.8725C37.0695 62.0656 37.7804 63.1634 38.6334 64.1179C36.7852 65.1202 34.8897 65.5974 32.7572 65.5974C26.5019 65.5974 22 61.3975 22 54.668C22 47.8908 26.7389 43.6908 32.7572 43.6908C34.8897 43.6908 36.5957 44.1681 38.3016 45.0749C37.496 46.0772 36.8326 47.2226 36.3587 48.4635C35.3162 48.034 34.2736 47.8431 33.1837 47.8431C29.4874 47.8431 26.5967 50.2771 26.5967 54.668C26.5967 58.8202 29.3926 61.4929 33.3259 61.4929C34.5106 61.4929 35.5531 61.302 36.5483 60.8725ZM49.1062 43.7385C55.2667 43.7385 59.6739 48.1771 59.6739 54.7157C59.6739 61.2066 55.2193 65.6452 49.1062 65.6452C42.9931 65.6452 38.586 61.2066 38.586 54.7157C38.586 48.1771 43.0405 43.7385 49.1062 43.7385ZM49.1062 47.7476C45.6943 47.7476 43.1827 50.4203 43.1827 54.7157C43.1827 58.9157 45.6943 61.6361 49.1062 61.6361C52.613 61.6361 55.0772 58.9634 55.0772 54.7157C55.0772 50.4203 52.6604 47.7476 49.1062 47.7476ZM62.612 65.1202V44.1681H67.2086V65.1202H62.612ZM62.0433 37.7727C62.0433 36.15 63.3702 34.9091 64.8866 34.9091C66.403 34.9091 67.7299 36.1977 67.7299 37.7727C67.7299 39.4431 66.403 40.7318 64.8866 40.7318C63.3702 40.7318 62.0433 39.3954 62.0433 37.7727ZM71.1893 45.5044C74.0326 44.359 77.5867 43.6908 80.5722 43.6908C85.7849 43.6908 89.1495 45.7431 89.1495 51.6135V65.0724H84.6002V52.0907C84.6002 49.0839 82.7521 47.9862 80.1931 47.9862C78.5819 47.9862 76.9707 48.2249 75.7386 48.6067V65.1679H71.1419V45.5044H71.1893ZM92.988 33H97.5847V44.7885C98.5324 44.2635 100.428 43.7385 102.276 43.7385C108.2 43.7385 112.654 47.6044 112.654 54.3339C112.654 61.1111 108.247 65.6452 100.665 65.6452C97.7268 65.6452 95.1205 65.0247 93.0354 64.2611V33H92.988ZM97.5373 61.1588C98.4377 61.4452 99.575 61.5884 100.712 61.5884C104.93 61.5884 107.915 59.202 107.915 54.3816C107.915 50.3248 105.072 47.8908 101.613 47.8908C99.8119 47.8908 98.4377 48.368 97.4899 48.893V61.1588H97.5373ZM125.781 51.0885C125.781 48.7976 124.122 47.7953 121.848 47.7953C119.478 47.7953 117.63 48.5112 115.924 49.5135V45.409C117.725 44.359 120.047 43.6908 122.558 43.6908C127.06 43.6908 130.235 45.5999 130.235 50.8498V64.6906C128.292 65.2156 125.544 65.5497 123.222 65.5497C117.914 65.5497 114.028 63.8793 114.028 59.1543C114.028 54.9066 117.583 52.8066 123.506 52.8066H125.781V51.0885ZM125.781 55.9566H123.838C120.663 55.9566 118.578 56.9112 118.578 59.0111C118.578 61.2066 120.521 62.0179 123.317 62.0179C124.027 62.0179 124.975 61.9225 125.828 61.7793L125.781 55.9566ZM133.6 59.4407C135.495 60.9202 137.77 61.827 139.855 61.827C141.893 61.827 143.22 61.1111 143.22 59.4407C143.22 57.7225 142.035 57.1021 139.381 56.4339C135.116 55.4316 133.316 53.7135 133.316 50.0385C133.316 45.7908 136.443 43.6908 140.613 43.6908C142.935 43.6908 144.784 44.2158 146.49 45.3135V49.6089C144.689 48.2726 142.935 47.4612 140.756 47.4612C138.765 47.4612 137.723 48.4635 137.723 49.8476C137.723 51.2317 138.623 51.9476 140.945 52.568C145.637 53.618 147.627 55.3839 147.627 59.202C147.627 63.5929 144.357 65.5974 139.903 65.5974C137.486 65.5974 135.116 64.9293 133.553 63.8793V59.4407H133.6ZM153.93 55.718V55.8134C154.214 59.5361 157.342 61.5884 160.564 61.5884C163.407 61.5884 165.398 60.9202 167.435 59.5361V63.6406C165.587 64.977 162.839 65.5974 160.232 65.5974C153.835 65.5974 149.522 61.4452 149.522 54.8112C149.522 48.1294 153.787 43.6908 159.427 43.6908C165.398 43.6908 168.194 47.6044 168.194 53.3316V55.718H153.93ZM163.881 52.7112C163.786 49.4658 162.223 47.6521 159.237 47.6521C156.583 47.6521 154.64 49.5612 154.072 52.7112H163.881Z" fill="white"/>
<path d="M184.912 33H185.536C186.159 33 186.643 33.3305 186.643 33.7554V76.2446C186.643 76.6695 186.159 77 185.536 77H184.912C184.289 77 183.805 76.6695 183.805 76.2446V33.7554C183.805 33.3305 184.359 33 184.912 33Z" fill="white"/>
<path d="M211.332 65.2701H208.757L200.844 44.3574H203.18L210.14 63.0986L217.1 44.3574H219.34L211.332 65.2701ZM231.878 57.717H220.437V57.7642C220.437 61.5407 223.107 63.7595 226.062 63.7595C228.207 63.7595 229.685 63.193 231.211 62.0128V64.1371C229.876 65.1757 227.921 65.6005 226.062 65.6005C221.676 65.6005 218.339 62.5793 218.339 57.5754C218.339 52.9491 221.438 49.5502 225.538 49.5502C229.352 49.5502 231.878 51.8633 231.878 56.2536V57.717ZM220.58 55.9231H229.828C229.685 52.713 227.969 51.4385 225.443 51.4385C223.107 51.4385 221.2 53.0435 220.58 55.9231ZM234.214 65.2701V50.7304C236.216 49.975 238.505 49.5502 240.555 49.5502C244.368 49.5502 246.704 51.0608 246.704 54.8846V65.2229H244.607V55.3094C244.607 52.1938 242.414 51.4857 240.364 51.4857C238.791 51.4857 237.361 51.7689 236.264 52.0521V65.2229H234.214V65.2701ZM247.991 51.7217V49.9278H250.327V46.1985H252.425V49.9278H256.668V51.7217H252.425V61.0687C252.425 63.0514 253.188 63.8067 254.618 63.8067C255.571 63.8067 256.382 63.4762 257.43 62.9569V64.8452C256.525 65.3173 255.476 65.6005 254.189 65.6005C251.996 65.6005 250.375 64.4204 250.375 61.2575V51.6745H247.991V51.7217ZM271.16 49.9278V65.0813C269.301 65.4117 267.442 65.6005 265.868 65.6005C261.483 65.6005 259.004 64.0899 259.004 60.2661V49.9278H261.101V60.1717C261.101 63.0514 263.342 63.8067 265.773 63.8067C266.822 63.8067 268.014 63.7595 269.11 63.6178V49.975H271.16V49.9278ZM276.785 52.477V65.2701H274.688V51.344C276.261 50.3055 278.215 49.6918 280.313 49.6918C281.123 49.6918 281.982 49.7862 282.84 50.0223V52.0994C281.934 51.7689 280.885 51.7217 280.17 51.7217C278.692 51.6745 277.548 52.0049 276.785 52.477ZM296.331 57.717H284.89V57.7642C284.89 61.5407 287.559 63.7595 290.515 63.7595C292.66 63.7595 294.138 63.193 295.663 62.0128V64.1371C294.329 65.1757 292.374 65.6005 290.515 65.6005C286.129 65.6005 282.792 62.5793 282.792 57.5754C282.792 52.9491 285.891 49.5502 289.99 49.5502C293.804 49.5502 296.331 51.8633 296.331 56.2536V57.717ZM285.033 55.9231H294.281C294.138 52.713 292.422 51.4385 289.895 51.4385C287.511 51.4385 285.605 53.0435 285.033 55.9231ZM297.904 64.3731V61.9656C299.191 63.1458 300.526 63.8067 302.147 63.8067C304.054 63.8067 305.245 63.0514 305.245 61.3519C305.245 59.5108 303.911 59.0388 301.527 58.2363C298.857 57.3393 297.713 56.2064 297.713 53.7516C297.713 51.0608 299.716 49.5974 302.481 49.5974C303.958 49.5974 305.436 49.9278 306.628 50.7776V53.0435C305.436 52.0521 304.244 51.3912 302.481 51.3912C300.812 51.3912 299.763 52.2882 299.763 53.7516C299.763 55.1678 300.574 55.8759 302.91 56.6312C305.532 57.4337 307.295 58.4723 307.295 61.2575C307.295 64.2787 304.959 65.6477 302.147 65.6477C300.478 65.6005 298.857 65.1285 297.904 64.3731Z" fill="white"/>
</svg>
